<svg id="Layer_3" data-name="Layer 3" xmlns="http://www.w3.org/2000/svg" xmlns:xlink="http://www.w3.org/1999/xlink" viewBox="0 0 1235.35 767.61"><defs><style>.cls-1{fill:url(#linear-gradient);}.cls-2{opacity:0.2;fill:url(#linear-gradient-2);}.cls-2,.cls-4,.cls-5,.cls-8{isolation:isolate;}.cls-3{fill:url(#linear-gradient-3);}.cls-4{opacity:0.5;fill:url(#linear-gradient-4);}.cls-5{opacity:0.6;fill:url(#linear-gradient-5);}.cls-6{fill:url(#linear-gradient-6);}.cls-7{fill:url(#linear-gradient-7);}.cls-8{opacity:0.4;fill:url(#linear-gradient-8);}.cls-9{fill:url(#linear-gradient-9);}.cls-10{fill:url(#linear-gradient-10);}.cls-11{fill:url(#linear-gradient-11);}.cls-12{fill:url(#linear-gradient-12);}.cls-13{fill:url(#linear-gradient-13);}.cls-14{fill:url(#linear-gradient-14);}.cls-15{fill:url(#linear-gradient-15);}.cls-16{fill:url(#linear-gradient-16);}.cls-17{fill:url(#linear-gradient-17);}</style><linearGradient id="linear-gradient" x1="356.06" y1="296" x2="1254.6" y2="296" gradientTransform="matrix(1, 0, 0, -1, 0, 780)" gradientUnits="userSpaceOnUse"><stop offset="0" stop-color="#f0f2f4"/><stop offset="0.4" stop-color="#edf0f3"/><stop offset="0.9" stop-color="#e1e9ee"/><stop offset="1" stop-color="#dde6ec"/></linearGradient><linearGradient id="linear-gradient-2" x1="769.86" y1="370.9" x2="811.96" y2="290.1" gradientTransform="matrix(1, -0.03, -0.03, -1, 1.95, 727.89)" gradientUnits="userSpaceOnUse"><stop offset="0" stop-color="#fff" stop-opacity="0"/><stop offset="1" stop-color="#fff"/></linearGradient><linearGradient id="linear-gradient-3" x1="415.97" y1="662.89" x2="415.97" y2="439.29" gradientTransform="matrix(1, -0.04, -0.04, -1, 1.54, 712.23)" xlink:href="#linear-gradient"/><linearGradient id="linear-gradient-4" x1="247.98" y1="572.15" x2="571.08" y2="572.15" gradientTransform="matrix(1, -0.04, -0.04, -1, 1.54, 712.23)" gradientUnits="userSpaceOnUse"><stop offset="0" stop-color="#fff" stop-opacity="0"/><stop offset="0.9" stop-color="#fff" stop-opacity="0.9"/><stop offset="1" stop-color="#fff"/></linearGradient><linearGradient id="linear-gradient-5" x1="312.59" y1="571.38" x2="319.39" y2="458.08" gradientTransform="matrix(1, -0.04, -0.04, -1, 1.54, 712.23)" gradientUnits="userSpaceOnUse"><stop offset="0" stop-color="#fff" stop-opacity="0"/><stop offset="0.9" stop-color="#fff"/></linearGradient><linearGradient id="linear-gradient-6" x1="636.43" y1="130.58" x2="662.13" y2="-52.32" gradientTransform="matrix(1, -0.04, -0.04, -1, 1.54, 712.23)" xlink:href="#linear-gradient"/><linearGradient id="linear-gradient-7" x1="658.67" y1="-126.61" x2="658.67" y2="374.39" gradientTransform="matrix(1, -0.04, -0.04, -1, 1.54, 712.23)" xlink:href="#linear-gradient-2"/><linearGradient id="linear-gradient-8" x1="740.54" y1="23.04" x2="562.04" y2="194.04" xlink:href="#linear-gradient"/><linearGradient id="linear-gradient-9" x1="349.25" y1="321.75" x2="384.25" y2="175.35" gradientTransform="matrix(1, -0.04, -0.04, -1, 1.54, 712.23)" xlink:href="#linear-gradient"/><linearGradient id="linear-gradient-10" x1="177.88" y1="262.49" x2="177.88" y2="544.49" xlink:href="#linear-gradient-5"/><linearGradient id="linear-gradient-11" x1="258.72" y1="63.39" x2="242.72" y2="168.89" xlink:href="#linear-gradient-5"/><linearGradient id="linear-gradient-12" x1="694.47" y1="620.03" x2="1495.27" y2="419.83" gradientTransform="matrix(1, -0.03, -0.03, -1, 1.95, 727.89)" xlink:href="#linear-gradient"/><linearGradient id="linear-gradient-13" x1="688.85" y1="601.14" x2="1492.05" y2="400.44" gradientTransform="matrix(1, -0.03, -0.03, -1, 1.95, 727.89)" xlink:href="#linear-gradient"/><linearGradient id="linear-gradient-14" x1="690.47" y1="563.54" x2="1490.27" y2="363.54" gradientTransform="matrix(1, -0.04, -0.04, -1, 1.54, 712.23)" xlink:href="#linear-gradient"/><linearGradient id="linear-gradient-15" x1="683.77" y1="536.63" x2="1483.57" y2="336.63" gradientTransform="matrix(1, -0.04, -0.04, -1, 1.54, 712.23)" xlink:href="#linear-gradient"/><linearGradient id="linear-gradient-16" x1="673.77" y1="533.6" x2="1474.17" y2="333.5" gradientTransform="matrix(1, -0.03, -0.03, -1, 1.95, 727.89)" xlink:href="#linear-gradient"/><linearGradient id="linear-gradient-17" x1="683.27" y1="534.63" x2="1483.07" y2="334.63" gradientTransform="matrix(1, -0.04, -0.04, -1, 1.54, 712.23)" xlink:href="#linear-gradient"/></defs><title>Capital_White2</title><path class="cls-1" d="M1128.4,497.7l13.1,174.7-34.9,2.1L1098,542.7l-.5-.4-22.2,134.1-25.5,1.5-42.1-132-.4.5L1018,679.9l-36.3,2.2L969.4,503l50.4-1.7,38.4,115.2,21.4-117.1,48.8-1.7ZM963.8,573.9l-45.4,2-2-30.7,47-1.9-2.8-40.1L875,506.1l12,181.8,38.9-2.4-4.6-69.1,45.4-2.3-2.9-40.2ZM912.9,322l32.5-.3L956,474.1l41.6-1.6-10.5-151,31.6-.3-2.8-38.1-105.7-.5,2.7,39.4ZM557.2,411.1l-50.8,1a72.64,72.64,0,0,1-3.7,8.6,58.9,58.9,0,0,1-7.9,11.8A44.61,44.61,0,0,1,462,448a47.29,47.29,0,0,1-22-4.7,52.35,52.35,0,0,1-17.2-13.5,69.79,69.79,0,0,1-16.3-42.5,68,68,0,0,1,11.6-41.6,46,46,0,0,1,55.3-16.2,47.85,47.85,0,0,1,13.9,8.6,63.6,63.6,0,0,1,16.5,23.5l50.8-.6a95.29,95.29,0,0,0-10.3-26.1A114.29,114.29,0,0,0,524,308.6a101.29,101.29,0,0,0-112.8-19.2A91.64,91.64,0,0,0,380.1,314a110.52,110.52,0,0,0-23.9,74.4,116.52,116.52,0,0,0,32.5,75.3A100,100,0,0,0,497.9,488a95,95,0,0,0,47.9-43.4A112.39,112.39,0,0,0,557.2,411.1ZM902,282.7l-44-.3,12.7,195,44.1-1.7Zm349.5,139.8-45,1.1-10.9-140.1-39.2.1,14.1,182.7,84.1-3.3ZM727.9,481.9l-50,2-11.5-30-64.3,1.6-8.3,31.6L542,488.6l64.2-206.7,37.1-.1,84.6,200.1Zm-76.4-68.8-22.8-68.8H628l-15.2,69.5Zm513.3,53.2-42.7,1.6-10-26.9-54.8,1.4-6.7,28.1-44.2,1.7,52.2-189.3,30,.4,76.2,183Zm-66-62.2-20.7-62.3h-.6l-11.7,63,33-.7ZM855.5,347.3a92.49,92.49,0,0,1-3.1,29.2,64.9,64.9,0,0,1-5,12.6,43.45,43.45,0,0,1-6.9,9.9,63.22,63.22,0,0,1-8.8,7.7,45.87,45.87,0,0,1-10.3,5.5,64.36,64.36,0,0,1-13.3,3.5,127.68,127.68,0,0,1-17.9,1.4l-19.6.4,4.5,63-44,1.3L718.6,282l58.3.1c8.2,0,15-.2,20.9.4a85.73,85.73,0,0,1,15,2.8,48.67,48.67,0,0,1,18.9,10.3,64.63,64.63,0,0,1,16.9,23.1A82.64,82.64,0,0,1,855.5,347.3Zm-42.6,1.3a26.89,26.89,0,0,0-4.1-13.4,19.87,19.87,0,0,0-8.3-6.8,35.31,35.31,0,0,0-9.9-2.5c-3.3-.3-6.3-.3-8.8-.3l-16.8.1,2.9,47.1,18.4-.3a61,61,0,0,0,8-.5,27.93,27.93,0,0,0,9.1-2.7,16.66,16.66,0,0,0,7.2-7.2c1.7-3.1,2.6-7.6,2.3-13.5Z" transform="translate(-19.25 -4.5)"/><path class="cls-2" d="M770.6,417.6l19.6-.4c2.6,0,4.9-.2,7.2-.3q22.35-10.5,45-20.2a40.45,40.45,0,0,0,4.9-7.5,84.12,84.12,0,0,0-6-82.7A57.39,57.39,0,0,0,823.4,290a53.08,53.08,0,0,0-10.7-4.4,86,86,0,0,0-15-2.8c-5.9-.6-12.7-.4-20.9-.4l-58.3-.1,10.6,168.9q21-11.1,42.2-21.4l-.7-12.2Zm-5.7-91.8,16.8-.1c2.4,0,5.5,0,8.8.3a29.47,29.47,0,0,1,9.9,2.5,19.31,19.31,0,0,1,8.3,6.8,25.62,25.62,0,0,1,4.1,13.4c.4,5.9-.5,10.4-2.3,13.7a17.24,17.24,0,0,1-7.2,7.2,28.2,28.2,0,0,1-9.1,2.7,62,62,0,0,1-8,.5l-18.4.3-2.9-47.3Z" transform="translate(-19.25 -4.5)"/><path class="cls-3" d="M210.9,305.4l-.1-1.1c-6.6-128,89.4-169.3,89.4-169.3L582.1,4.7c-4.4,3-11.4,8.5-11.4,8.5l-1.1.8a139.78,139.78,0,0,0-10.5,9.8l-1.4,1.6-1.1,1.1a27.82,27.82,0,0,0-2.1,2.7c-2.6,3-5.1,6.1-7.5,9.4l-3.2,4.5c-2.4,3.5-4.5,7.2-6.6,11l-1.7,2.8-.4.9a139.21,139.21,0,0,0-6.5,14.7l-.3,1-1.2,3.7a136.46,136.46,0,0,0-3.7,13.3l-.7,2.5-.4,3.3c-.8,4.2-1.4,8.5-1.8,12.8l-.6,5.6a168.44,168.44,0,0,0-.2,18.8l4.2,77.4-61.1-.5a168.34,168.34,0,0,0-66.4,12.9L210.9,305.4Z" transform="translate(-19.25 -4.5)"/><path class="cls-4" d="M300.2,135l-.2.1-.2.1-.4.2-.6.3-.4.2-.9.5-.3.1a163.31,163.31,0,0,0-79.3,100.2l-.1.2-1.9,7.4a445.94,445.94,0,0,1,75.4-42.9c0-.2,140.6-65.9,182.9-77.2,12.2-3.3,28.7-5.8,45.5-7.8l.1-1.8c.1-1.9.4-3.7.6-5.6.4-4.4,1-8.6,1.8-12.8l.4-3.3.7-2.5c1-4.5,2.3-9,3.7-13.3.4-1.2.7-2.5,1.2-3.7l.3-1A139.21,139.21,0,0,1,535,57.7l.4-.9,1.7-2.8a123.1,123.1,0,0,1,6.6-11l3.2-4.5a110.28,110.28,0,0,1,7.5-9.4,27.82,27.82,0,0,0,2.1-2.7l1.1-1.1,1.4-1.6a138.42,138.42,0,0,1,10.5-9.8l1.1-.9s7-5.5,11.4-8.5Z" transform="translate(-19.25 -4.5)"/><path class="cls-5" d="M215.8,244.7c16.5-13.3,47.9-30.8,81.2-45.9,2.2-21.1,11.9-52.1,79.7-99.1L300.2,135S235,163.1,215.8,244.7Z" transform="translate(-19.25 -4.5)"/><path class="cls-6" d="M399.9,615.3c2.3,41.4,12,158,133.3,156.8,125-1.3,364.3-8.9,382.1-9.5-4.6.1-22.9-.1-47.2-8.4a42.65,42.65,0,0,0-5.5-2.4,169.18,169.18,0,0,1-56.2-35.6,186.46,186.46,0,0,1-40.3-56,193.38,193.38,0,0,1-17.9-70.5l-2.4-38.1Z" transform="translate(-19.25 -4.5)"/><path class="cls-7" d="M868.1,754.1a42.65,42.65,0,0,0-5.5-2.4,169.18,169.18,0,0,1-56.2-35.6l-7.6-7.7c-130,6.7-249.3,4.5-319.2-8.2-50-9.1-62.7-23.7-73.2-33.7,11,48.6,40.9,106.4,126.7,105.6,125-1.6,364.3-8.9,382.1-9.5-4.4.1-22.7-.1-47.1-8.5Z" transform="translate(-19.25 -4.5)"/><path class="cls-8" d="M862.6,751.7a169.18,169.18,0,0,1-56.2-35.6l-7.6-7.7c-106.2,5.5-201.4,4.7-275.1-2.1,1,9.7,13.5,23.4,77.2,35.6,47,9,88.9,18.7,136.5,25.8,89.3-2.4,167.9-4.9,177.9-5.2-4.6.1-22.9-.1-47.2-8.4l-5.5-2.4Z" transform="translate(-19.25 -4.5)"/><path class="cls-9" d="M211.3,305.1,101.6,358.8S4.4,403.2,21.2,521.3a144.74,144.74,0,0,0,21,60.6,143.19,143.19,0,0,0,76,62.3,119.73,119.73,0,0,0,57.3,8.5c50.6-2.9,570.8-101.2,570.8-101.2l-265,10.6a177.43,177.43,0,0,1-128.3-48,184,184,0,0,1-59.1-126.3,224,224,0,0,1,2-36.6q1-6.24,2.5-12.4l.7-2.3,2-6.7,1.3-4.7.2-.1c.8-2.3,1.4-4.7,2.3-7.1a167.72,167.72,0,0,1,90.7-94.3L211.3,305.1Z" transform="translate(-19.25 -4.5)"/><path class="cls-10" d="M111.2,381.4l147.1-63.6s18.1-33.2,48.7-55.2l-95.8,42.5L101.6,358.8s-58.2,26.6-76.7,93.4c23.2-36.4,41-51.1,86.3-70.8Z" transform="translate(-19.25 -4.5)"/><path class="cls-11" d="M429.8,610.1c-35-.2-115.1-.7-147.3-32.1C90.7,629.3,78.1,616.7,59.1,604.5a146.73,146.73,0,0,0,59.2,39.6,119.73,119.73,0,0,0,57.3,8.5c23.1-1.3,143.6-22.5,268-45.1-4.7,1-9.2,1.8-13.8,2.6Z" transform="translate(-19.25 -4.5)"/><path class="cls-12" d="M1104.1,152.2a37.62,37.62,0,0,1,13.5,3.3,43.28,43.28,0,0,1,12.7,9.1,49.15,49.15,0,0,1,9.6,14.8,60,60,0,0,1,4.6,20.5,60.94,60.94,0,0,1-2.4,21.4,45.18,45.18,0,0,1-9.1,16.4,38.68,38.68,0,0,1-14.2,10.5,44.06,44.06,0,0,1-17.9,3.6,52.69,52.69,0,0,1-21.7-5,46.82,46.82,0,0,1-17.2-14.3,41.47,41.47,0,0,1-5.3-8.3,74,74,0,0,1-6.1-18.5,70.32,70.32,0,0,1-.7-19,74.08,74.08,0,0,1,8.9-26.9l27.4-49.4,35.6,1.5-24,40.4.4.4,1.2-.4,1.4-.2h1.5l1.8.1Zm-5.9,68.3a17.47,17.47,0,0,0,6.5-1.2,16,16,0,0,0,8.6-9.5,20.64,20.64,0,0,0,.9-7.6,23.8,23.8,0,0,0-5.1-13,17.69,17.69,0,0,0-13-6.4,12.84,12.84,0,0,0-6.6,1.4,15.76,15.76,0,0,0-5,3.9,16.8,16.8,0,0,0-3,5.8,22.8,22.8,0,0,0,5.4,21.6,17.19,17.19,0,0,0,11.3,5" transform="translate(-19.25 -4.5)"/><path class="cls-13" d="M992.7,103.9a52.8,52.8,0,0,1,42.7,29.1,68,68,0,0,1,6.4,25.9L1044,198c.5,9.8-.7,17.9-3.1,24.7a41.1,41.1,0,0,1-40.3,28,53.71,53.71,0,0,1-44.8-29.3,67.32,67.32,0,0,1-6.3-25.6l-2.1-39.9c-.6-10.3.9-18.8,3.6-25.7a39.36,39.36,0,0,1,11.5-16.1,42.72,42.72,0,0,1,15.2-8.2,43.31,43.31,0,0,1,15-2ZM1012,198l-2.2-41.1-.5-5.2a29.35,29.35,0,0,0-2-7.1,14.38,14.38,0,0,0-13.4-9.2,12.45,12.45,0,0,0-7.6,1.9,12.84,12.84,0,0,0-4.3,5.2,22.8,22.8,0,0,0-1.8,6.8,37.22,37.22,0,0,0-.2,6.6l2.2,41.3a45.11,45.11,0,0,0,.9,6.9,24,24,0,0,0,2.6,6.9,14,14,0,0,0,12.6,7.6,11.64,11.64,0,0,0,12.4-8.7,24.83,24.83,0,0,0,1.2-7,20.67,20.67,0,0,0,.1-4.9" transform="translate(-19.25 -4.5)"/><path class="cls-14" d="M934.8,104.1l7.5,143.1-33.5-.4L903,133.4l-21.5-.7-1.6-30.9Z" transform="translate(-19.25 -4.5)"/><path class="cls-15" d="M891.9,174.3l1.6,32-78-1.6-1.6-32.5Z" transform="translate(-19.25 -4.5)"/><path class="cls-16" d="M678.9,110.2a42.54,42.54,0,0,1,10.4,17.9,68,68,0,0,1,2.7,31.5,71.35,71.35,0,0,1-6.4,20.3q-2.25,4.65-4.8,9l-33.8,55-43.8-.5,30.6-45.8-.3-.5-1.2.3-1.6.2-2,.1h-2.4a43.14,43.14,0,0,1-16.4-3.7,52.81,52.81,0,0,1-27.5-26.9,59.65,59.65,0,0,1-5.3-22.7,60.49,60.49,0,0,1,3.6-23.8,49,49,0,0,1,29.6-28.9,58.23,58.23,0,0,1,21.9-3.2,74.37,74.37,0,0,1,26.1,6,60,60,0,0,1,20.6,15.7Zm-42.6,53.4a19.85,19.85,0,0,0,8.3-1.4,18,18,0,0,0,6.2-4.2,18.32,18.32,0,0,0,3.8-6.3,20.68,20.68,0,0,0,1.1-7.5,23.5,23.5,0,0,0-2.2-9.2,21.38,21.38,0,0,0-5-6.7,24.55,24.55,0,0,0-6.6-4.2,20.8,20.8,0,0,0-14.8-.4,17.39,17.39,0,0,0-10.5,10.2,20.41,20.41,0,0,0-1.3,8.3,23.71,23.71,0,0,0,5.7,14.3,20.41,20.41,0,0,0,15.3,7.1" transform="translate(-19.25 -4.5)"/><path class="cls-17" d="M784.8,97.8l1.5,31.7-49.6-1.9-2,20.1,2.9-1.5a22.42,22.42,0,0,1,8.7-2.1,52.53,52.53,0,0,1,28.3,5.5,48.18,48.18,0,0,1,14.8,12.7A59.18,59.18,0,0,1,801.7,195a55.32,55.32,0,0,1-10.8,35.1,45.35,45.35,0,0,1-15.8,13.1,52.87,52.87,0,0,1-23.9,5,62.52,62.52,0,0,1-20.8-3.7,53.5,53.5,0,0,1-28.5-23.7,60.55,60.55,0,0,1-6.8-17.1l36.5.8a27.93,27.93,0,0,0,5.2,5.6l2.6,1.7,2.5,1.1a8.64,8.64,0,0,0,2.1.7l1.8.4,1.5.2,1.1.1a18.86,18.86,0,0,0,7.2-1.4,18.49,18.49,0,0,0,5.8-4.1,18.89,18.89,0,0,0,5-13.8,20.8,20.8,0,0,0-1.6-7.2,19.58,19.58,0,0,0-3.9-6.3,18.49,18.49,0,0,0-6.1-4.6,21.49,21.49,0,0,0-13.5-1.5,15.3,15.3,0,0,0-9.2,5.7,21.15,21.15,0,0,0-3.3,6.2L699,178.8l8.3-84.7,77.5,3.7Z" transform="translate(-19.25 -4.5)"/></svg>