<svg xmlns="http://www.w3.org/2000/svg" id="Digital_Radio__x26__TV" viewBox="56 11 235 145">
  <style>
    .Arched_x0020_Green{fill:url(#SVGID_1_);stroke:#FFFFFF;stroke-width:0.25;stroke-miterlimit:1;} .st0{fill:url(#SVGID_2_);} .st1{fill:url(#SVGID_3_);} .st2{fill:#EB282D;} .st3{opacity:0.21;fill:url(#SVGID_4_);} .st4{opacity:0.21;fill:url(#SVGID_5_);} .st5{opacity:0.21;fill:url(#SVGID_6_);} .st6{opacity:0.21;fill:url(#SVGID_7_);} .st7{opacity:0.21;fill:url(#SVGID_8_);} .st8{opacity:0.21;fill:url(#SVGID_9_);} .st9{opacity:0.21;fill:url(#SVGID_10_);} .st10{fill:url(#SVGID_11_);} .st11{opacity:0.5;fill:url(#SVGID_12_);} .st12{opacity:0.58;fill:url(#SVGID_13_);} .st13{fill:url(#SVGID_14_);} .st14{fill:url(#SVGID_15_);} .st15{opacity:0.4;fill:#19285A;} .st16{fill:url(#SVGID_16_);} .st17{fill:url(#SVGID_17_);} .st18{fill:url(#SVGID_18_);} .st19{fill:url(#SVGID_19_);} .st20{fill:url(#SVGID_20_);} .st21{fill:url(#SVGID_21_);} .st22{fill:url(#SVGID_22_);} .st23{fill:url(#SVGID_23_);} .st24{fill:url(#SVGID_24_);}
  </style>
  <linearGradient id="SVGID_1_" x1="30.67" x2="31.38" y1="241.46" y2="240.76" gradientUnits="userSpaceOnUse">
    <stop offset="0" stop-color="#22AB4B"/>
    <stop offset=".98" stop-color="#1B361C"/>
  </linearGradient>
  <linearGradient id="SVGID_2_" x1="151.08" x2="326.58" y1="102.1" y2="141.35" gradientUnits="userSpaceOnUse">
    <stop offset="0" stop-color="#283287"/>
    <stop offset=".25" stop-color="#2D378C"/>
    <stop offset=".56" stop-color="#3B469A"/>
    <stop offset=".9" stop-color="#525FB1"/>
    <stop offset="1" stop-color="#5A68B9"/>
  </linearGradient>
  <path d="M255.8 107.4l-4.9 22-6.4-22-9.5-.1 1 33.9 6.9-.1-1.1-25.3.1-.1 7 25.2 4.8-.1 5.2-25.1.1.1.7 24.9 6.5-.2-1.2-33z" class="st0"/>
  <linearGradient id="SVGID_3_" x1="149.88" x2="325.38" y1="107.51" y2="146.76" gradientUnits="userSpaceOnUse">
    <stop offset="0" stop-color="#283287"/>
    <stop offset=".25" stop-color="#2D378C"/>
    <stop offset=".56" stop-color="#3B469A"/>
    <stop offset=".9" stop-color="#525FB1"/>
    <stop offset="1" stop-color="#5A68B9"/>
  </linearGradient>
  <path d="M233.4 120.7h-8.5l-.2-5.8h8.9l-.3-7.6-16.1-.1.9 34.4 7.3-.1-.3-13.1 8.6-.1z" class="st1"/>
  <path d="M225.6 72.8l6.2.2.9 28.8h7.8l-.9-28.6 6 .2-.2-7.2-20-.9zM157.9 87l-9.6-.2c-.1.3-.4.9-.8 1.6-.4.7-.9 1.5-1.6 2.2-.7.7-1.5 1.4-2.6 1.9-1 .5-2.3.8-3.7.8-1.5 0-2.9-.4-4.1-1.1-1.2-.6-2.3-1.6-3.2-2.7-.9-1.1-1.6-2.4-2-3.8-.5-1.4-.7-2.9-.7-4.4 0-1.4.2-2.8.6-4.1.4-1.3 1-2.6 1.9-3.6.8-1.1 1.8-1.9 3.1-2.5 1.2-.6 2.6-.9 4.2-.9 1.3 0 2.4.3 3.4.8 1 .4 1.8 1 2.6 1.7.7.7 1.3 1.5 1.8 2.2.5.8.9 1.6 1.1 2.3l9.6.2c-.3-1.5-.9-3.2-1.8-5-.9-1.7-2.1-3.5-3.6-5.1-1.5-1.6-3.4-3-5.6-4.1-2.2-1.1-4.7-1.7-7.5-1.8-3-.1-5.7.4-8 1.5-2.4 1-4.4 2.6-6 4.4-1.7 1.9-2.9 4.1-3.8 6.4-.9 2.4-1.3 4.9-1.3 7.4 0 2.7.6 5.3 1.5 7.8 1 2.5 2.3 4.7 4.1 6.7 1.7 1.9 3.8 3.5 6.2 4.6 2.4 1.1 5 1.8 7.9 1.8 2.2 0 4.3-.3 6.3-1.1 1.9-.7 3.7-1.7 5.3-3.1 1.6-1.3 2.9-2.9 4-4.8 1-1.6 1.8-3.7 2.3-6zm66-21.7l-8.3-.4 1 36.9h8.3zm64.9 28.9l-8.5-.1-1-26.6-7.4-.2 1.3 34.5h15.9zm-113.7-31l-7-.3-13.6 38.5 9.8.1 1.8-5.9 12.1.2 2 5.8h9.4l-14.5-38.4zm-6.7 24.7l3.4-13h.1l3.8 13.1-7.3-.1zm90.7-21.2l-5.7-.3-11.2 35.3h8.4l1.5-5.2 10.4.1 1.7 5.1h8.1l-13.2-35zm-5.2 22.8l2.7-11.8h.1l3.5 11.9-6.3-.1zm-39.6-15.2c-.2-.9-.4-1.8-.8-2.6-.3-.8-.8-1.7-1.3-2.4-.5-.8-1.1-1.5-1.7-2.1-.5-.4-.9-.8-1.5-1.2-.6-.3-1.2-.7-2-.9-.8-.3-1.7-.5-2.8-.6-1.1-.2-2.4-.2-3.9-.2l-11-.4.9 37.8 8.3.1-.4-11.9 3.7.1c1.3 0 2.4 0 3.4-.1s1.8-.3 2.5-.6 1.4-.6 2-1c.6-.4 1.2-.9 1.7-1.4.5-.5 1-1.1 1.4-1.8.4-.7.8-1.5 1-2.3.3-.8.5-1.8.6-2.7.1-.9.2-1.9.2-2.8 0-1.1-.1-2.1-.3-3zm-8.3 5.3c-.4.6-.9 1-1.4 1.3-.6.3-1.2.4-1.7.5-.6.1-1.1 0-1.5 0l-3.5-.1-.2-8.9 3.2.1c.5 0 1 0 1.7.1.6.1 1.3.2 1.9.5.6.3 1.1.7 1.5 1.3.4.6.7 1.5.7 2.6-.1 1.2-.3 2-.7 2.6z" class="st2"/>
  <linearGradient id="SVGID_4_" x1="228.96" x2="236.92" y1="56.91" y2="72.2" gradientUnits="userSpaceOnUse">
    <stop offset="0" stop-color="#FFF" stop-opacity="0"/>
    <stop offset="1" stop-color="#FFF"/>
  </linearGradient>
  <path d="M239.6 73.2l6 .2-.3-7.2-19.9-.9.2 7.5 6.1.2.2 6.3c2.6-.8 5.2-1.6 7.8-2.3l-.1-3.8z" class="st3"/>
  <linearGradient id="SVGID_5_" x1="148.28" x2="156.24" y1="99.11" y2="114.41" gradientUnits="userSpaceOnUse">
    <stop offset="0" stop-color="#FFF" stop-opacity="0"/>
    <stop offset="1" stop-color="#FFF"/>
  </linearGradient>
  <path d="M125.7 95.7c1.7 1.9 3.8 3.5 6.2 4.6 2.4 1.1 5 1.8 7.9 1.8 2.2 0 4.3-.3 6.3-1.1 1.9-.7 3.7-1.7 5.3-3.1 1.6-1.3 2.9-2.9 4-4.8 1.1-1.8 1.9-3.9 2.4-6.2l-9.6-.2c-.1.3-.4.9-.8 1.6-.4.7-.9 1.5-1.6 2.2-.7.7-1.5 1.4-2.6 1.9-1 .5-2.3.8-3.7.8-1.5 0-2.9-.4-4.1-1.1-1.2-.6-2.3-1.6-3.2-2.7-.9-1.1-1.6-2.4-2-3.8-.5-1.4-.7-2.9-.7-4.4 0-1.4.2-2.8.6-4.1.4-1.3 1-2.6 1.9-3.6.8-1.1 1.8-1.9 3.1-2.5 1.2-.6 2.6-.9 4.2-.9 1.3 0 2.4.3 3.4.8 1 .4 1.8 1 2.6 1.7.7.7 1.3 1.5 1.8 2.2.5.8.9 1.6 1.1 2.3l9.6.2c-.3-1.5-.9-3.2-1.8-5-.9-1.7-2.1-3.5-3.6-5.1-1.5-1.6-3.4-3-5.6-4.1-2.2-1.1-4.7-1.7-7.5-1.8-3-.1-5.7.4-8 1.5-2.4 1-4.4 2.6-6 4.4-1.7 1.9-2.9 4.1-3.8 6.4-.9 2.4-1.3 4.9-1.3 7.4 0 2.7.6 5.3 1.5 7.8.9 2.7 2.3 4.9 4 6.9z" class="st4"/>
  <linearGradient id="SVGID_6_" x1="214.49" x2="222.45" y1="64.44" y2="79.73" gradientUnits="userSpaceOnUse">
    <stop offset="0" stop-color="#FFF" stop-opacity="0"/>
    <stop offset="1" stop-color="#FFF"/>
  </linearGradient>
  <path d="M223.9 65.3l-8.3-.4.5 19.8c2.7-1 5.5-2 8.2-2.9l-.4-16.5z" class="st5"/>
  <linearGradient id="SVGID_7_" x1="260.91" x2="268.87" y1="40.28" y2="55.57" gradientUnits="userSpaceOnUse">
    <stop offset="0" stop-color="#FFF" stop-opacity="0"/>
    <stop offset="1" stop-color="#FFF"/>
  </linearGradient>
  <path d="M279.3 67.5l-7.4-.3.1 2.3 7.3-1.2v-.8z" class="st6"/>
  <linearGradient id="SVGID_8_" x1="168" x2="175.96" y1="88.64" y2="103.93" gradientUnits="userSpaceOnUse">
    <stop offset="0" stop-color="#FFF" stop-opacity="0"/>
    <stop offset="1" stop-color="#FFF"/>
  </linearGradient>
  <path d="M175.1 63.2l-7-.3-13.6 38.5 9.8.1 1.8-5.9 12.1.2 1.7 5c2.6-1.4 5.2-2.7 7.9-4l-12.7-33.6zm-6.7 24.7l3.4-13h.1l3.8 13.1-7.3-.1z" class="st7"/>
  <linearGradient id="SVGID_9_" x1="243.96" x2="251.92" y1="49.1" y2="64.39" gradientUnits="userSpaceOnUse">
    <stop offset="0" stop-color="#FFF" stop-opacity="0"/>
    <stop offset="1" stop-color="#FFF"/>
  </linearGradient>
  <path d="M259.1 66.7l-5.7-.3L251 74c3.3-.8 6.6-1.6 9.9-2.3l-1.8-5z" class="st8"/>
  <linearGradient id="SVGID_10_" x1="196.63" x2="204.59" y1="73.74" y2="89.03" gradientUnits="userSpaceOnUse">
    <stop offset="0" stop-color="#FFF" stop-opacity="0"/>
    <stop offset="1" stop-color="#FFF"/>
  </linearGradient>
  <path d="M198.1 89.8l3.7.1h1.4c2.9-1.2 5.7-2.4 8.6-3.5.4-.4.7-.9 1-1.4.4-.7.8-1.5 1-2.3.3-.8.5-1.8.6-2.7.1-.9.2-1.9.2-2.8 0-.9-.1-1.9-.3-2.8-.2-.9-.4-1.8-.8-2.6-.3-.8-.8-1.7-1.3-2.4-.5-.8-1.1-1.5-1.7-2.1-.5-.4-.9-.8-1.5-1.2-.6-.3-1.2-.7-2-.9-.8-.3-1.7-.5-2.8-.6-1.1-.2-2.4-.2-3.9-.2l-11-.4.8 31.9c2.7-1.3 5.4-2.5 8.1-3.7l-.1-2.4zm-.4-17.4l3.2.1c.5 0 1 0 1.7.1.6.1 1.3.2 1.9.5.6.3 1.1.7 1.5 1.3.4.6.7 1.5.7 2.6s-.2 2-.5 2.6c-.4.6-.9 1-1.4 1.3-.6.3-1.2.4-1.7.5-.6.1-1.1 0-1.5 0l-3.5-.1-.4-8.9z" class="st9"/>
  <linearGradient id="SVGID_11_" x1="129.4" x2="129.4" y1="14.64" y2="56.85" gradientUnits="userSpaceOnUse">
    <stop offset="0" stop-color="#4B50B4"/>
    <stop offset=".5" stop-color="#3646A0"/>
    <stop offset="1" stop-color="#19285A"/>
  </linearGradient>
  <path d="M93.3 64.5v-.2C93 40.1 111.4 33 111.4 33l54.1-22.6c-.8.5-2.2 1.5-2.2 1.5-.1.1-.2.1-.2.2-.7.6-1.4 1.1-2.1 1.8l-.3.3-.2.2c-.2.2-.3.3-.4.5-.5.6-1 1.1-1.5 1.7-.2.3-.4.6-.6.8-.5.7-.9 1.3-1.3 2-.1.2-.2.3-.3.5 0 .1-.1.1-.1.2-.5.9-.9 1.8-1.3 2.7 0 .1 0 .1-.1.2-.1.2-.2.5-.2.7-.3.8-.6 1.6-.8 2.5 0 .2-.1.3-.2.5 0 .2-.1.4-.1.6-.2.8-.3 1.6-.4 2.4-.1.3-.1.7-.1 1-.1 1.2-.2 2.3-.2 3.5L153 49l-11.5-.5c-4.5-.2-8.7.5-12.6 1.9L93.3 64.5z" class="st10"/>
  <linearGradient id="SVGID_12_" x1="97.69" x2="158.68" y1="31.77" y2="31.77" gradientUnits="userSpaceOnUse">
    <stop offset="0" stop-color="#FFF" stop-opacity="0"/>
    <stop offset=".95" stop-color="#FFF" stop-opacity=".95"/>
    <stop offset="1" stop-color="#FFF"/>
  </linearGradient>
  <path d="M111.4 33s0 .1 0 0c-.1.1-.1.1 0 0-.1 0-.1.1-.2.1h-.2c-.1 0-.1.1-.2.1h-.1C108.3 34.3 99 39.3 95 51.5c-.1.4-.3.9-.4 1.4 3.6-2.4 8.9-5.2 14.5-7.5 0 0 27-11.4 35.1-13.2 2.3-.5 5.5-.9 8.6-1.1v-.3c0-.4.1-.7.1-1 .1-.8.3-1.6.4-2.4 0-.2.1-.4.1-.6 0-.2.1-.3.2-.5.2-.8.5-1.7.8-2.5.1-.2.2-.5.2-.7 0-.1 0-.1.1-.2.4-.9.8-1.8 1.3-2.7 0-.1.1-.1.1-.2.1-.2.2-.3.3-.5.4-.7.9-1.4 1.3-2 .2-.3.4-.6.6-.8.5-.6 1-1.2 1.5-1.7.2-.2.3-.3.4-.5l.2-.2.3-.3c.7-.6 1.3-1.2 2.1-1.8l.2-.2s1.4-1 2.2-1.5L111.4 33z" class="st11"/>
  <linearGradient id="SVGID_13_" x1="109.89" x2="111.17" y1="31.9" y2="53.31" gradientUnits="userSpaceOnUse">
    <stop offset=".01" stop-color="#FFF" stop-opacity="0"/>
    <stop offset=".94" stop-color="#FFF"/>
  </linearGradient>
  <path d="M94.7 53.1c3.2-2.4 9.3-5.5 15.7-8.1.6-4 2.6-9.7 15.8-18.1L111.4 33s-12.5 4.9-16.7 20.1z" class="st12"/>
  <linearGradient id="SVGID_14_" x1="171.04" x2="175.89" y1="115.16" y2="149.67" gradientUnits="userSpaceOnUse">
    <stop offset="0" stop-color="#4B50B4"/>
    <stop offset=".5" stop-color="#3646A0"/>
    <stop offset="1" stop-color="#19285A"/>
  </linearGradient>
  <path d="M126.7 124.5c.1 7.8 1.1 29.8 24 30.5 23.6.7 68.8 1 72.2 1-.9 0-4.3-.2-8.9-1.9-.3-.2-.6-.3-1-.5-3.8-1.6-7.4-4.1-10.3-7.1-3-3.1-5.5-6.7-7.2-10.9-1.7-4.1-2.8-8.7-2.9-13.4l-.2-7.2-65.7 9.5z" class="st13"/>
  <linearGradient id="SVGID_15_" x1="175.25" x2="175.25" y1="163.71" y2="69.1" gradientUnits="userSpaceOnUse">
    <stop offset="0" stop-color="#FFF" stop-opacity="0"/>
    <stop offset="1" stop-color="#FFF"/>
  </linearGradient>
  <path d="M214.1 154c-.3-.2-.6-.3-1-.5-3.8-1.6-7.4-4.1-10.3-7.1-.5-.5-.9-1-1.4-1.5-24.6.3-47.1-1-60.2-3.9-9.4-2.1-11.7-4.9-13.6-6.9 1.7 9.3 7 20.4 23.2 20.8 23.6.6 68.8 1 72.2 1-.9 0-4.4-.2-8.9-1.9z" class="st14"/>
  <path d="M213 153.5c-3.8-1.6-7.4-4.1-10.3-7.1-.5-.5-.9-1-1.4-1.5-20.1.3-38-.6-51.9-2.4.1 1.8 2.4 4.5 14.3 7.3 8.8 2 16.6 4.2 25.6 5.9 16.9.2 31.7.3 33.6.3-.9 0-4.3-.2-8.9-1.9-.2-.3-.5-.4-1-.6z" class="st15"/>
  <linearGradient id="SVGID_16_" x1="116.82" x2="123.43" y1="79.04" y2="106.69" gradientUnits="userSpaceOnUse">
    <stop offset="0" stop-color="#4B50B4"/>
    <stop offset=".5" stop-color="#3646A0"/>
    <stop offset="1" stop-color="#19285A"/>
  </linearGradient>
  <path d="M93.4 64.5l-21.1 9.3S53.6 81.5 56 103.9c.5 5 1.8 8.8 3.5 11.6 1.3 2.4 3 4.6 5 6.6 2.5 2.4 5.6 4.4 8.9 5.8 3.3 1.3 5.5 2.1 10.7 2 9.6-.2 108.4-15 108.4-15l-50.1.1c-4.6 0-9-.9-13-2.7-4.1-1.7-7.7-4.2-10.8-7.3-3.1-3.1-5.7-6.8-7.4-10.9-1.8-4.1-2.8-8.6-2.8-13.3 0-1 .1-2.1.1-3.1 0-.3.1-.5.1-.8.1-.9.2-1.8.4-2.7 0-.1 0-.2.1-.4.2-.8.3-1.6.6-2.3 0-.2.1-.3.1-.4.1-.4.3-.8.4-1.3l.3-.9c.2-.4.3-.9.5-1.3 1.7-4 4.2-7.5 7.2-10.4 3-2.9 6.6-5.2 10.6-6.7l-35.4 14z" class="st16"/>
  <linearGradient id="SVGID_17_" x1="84.45" x2="84.45" y1="90.25" y2="36.99" gradientUnits="userSpaceOnUse">
    <stop offset=".01" stop-color="#FFF" stop-opacity="0"/>
    <stop offset=".94" stop-color="#FFF"/>
  </linearGradient>
  <path d="M73.9 78.2c13.1-5.1 28.2-10.9 28.2-10.9s3.7-6.1 9.6-10.1l-18.4 7.3-21.1 9.3S61 78.4 57.1 90.9c4.7-6.7 8.2-9.3 16.8-12.7z" class="st17"/>
  <linearGradient id="SVGID_18_" x1="99.7" x2="96.69" y1="127.84" y2="107.92" gradientUnits="userSpaceOnUse">
    <stop offset=".01" stop-color="#FFF" stop-opacity="0"/>
    <stop offset=".94" stop-color="#FFF"/>
  </linearGradient>
  <path d="M132.4 123.6c-6.6-.3-21.7-1-27.6-7.1-36.6 8.3-38.8 5.8-42.3 3.4.6.8 1.3 1.5 2 2.2 2.5 2.4 5.6 4.4 8.9 5.8 3.3 1.3 5.5 2.1 10.7 2 4.4-.1 27.3-3.2 50.9-6.6l-2.6.3z" class="st18"/>
  <linearGradient id="SVGID_19_" x1="168.03" x2="343.53" y1="26.33" y2="65.58" gradientUnits="userSpaceOnUse">
    <stop offset="0" stop-color="#283287"/>
    <stop offset=".25" stop-color="#2D378C"/>
    <stop offset=".56" stop-color="#3B469A"/>
    <stop offset=".9" stop-color="#525FB1"/>
    <stop offset="1" stop-color="#5A68B9"/>
  </linearGradient>
  <path d="M262.9 42.1c.8.1 1.7.3 2.5.7.8.4 1.6 1 2.3 1.8.7.8 1.3 1.7 1.7 2.9.4 1.1.7 2.4.7 3.9s-.2 2.8-.6 4c-.4 1.2-1 2.2-1.8 3-.8.8-1.7 1.5-2.8 1.9-1 .4-2.2.6-3.4.5-.7 0-1.4-.1-2.1-.3-.7-.2-1.3-.4-2-.8-.6-.3-1.2-.7-1.7-1.2s-1-1-1.4-1.6c-.4-.5-.7-1-.9-1.6-.3-.6-.5-1.2-.6-1.8-.2-.6-.3-1.2-.4-1.8-.1-.6-.1-1.1-.1-1.6 0-.7 0-1.3.1-1.9.1-.6.2-1.2.4-1.8.2-.6.4-1.1.7-1.7.2-.5.5-1 .8-1.5l5.5-9.1 6.7.5-4.8 7.5.1.1c.1 0 .1-.1.2-.1h.9zM261.3 55c.4 0 .8 0 1.2-.2.4-.1.7-.4 1-.7.3-.3.5-.7.7-1.1.2-.4.2-.9.2-1.4 0-.4-.1-.9-.2-1.3s-.4-.8-.6-1.2c-.3-.4-.6-.7-1-.9-.4-.2-.9-.4-1.4-.4-.5 0-.9 0-1.3.2s-.7.4-1 .7c-.3.3-.5.7-.6 1.1-.1.4-.2.9-.2 1.3 0 .6.1 1.2.3 1.6.2.5.4.9.8 1.2.3.3.7.6 1 .7.4.2.8.3 1.1.4" class="st19"/>
  <linearGradient id="SVGID_20_" x1="167.37" x2="342.87" y1="29.27" y2="68.52" gradientUnits="userSpaceOnUse">
    <stop offset="0" stop-color="#283287"/>
    <stop offset=".25" stop-color="#2D378C"/>
    <stop offset=".56" stop-color="#3B469A"/>
    <stop offset=".9" stop-color="#525FB1"/>
    <stop offset="1" stop-color="#5A68B9"/>
  </linearGradient>
  <path d="M242.3 32.2c.8.1 1.7.3 2.7.7 1 .4 2 1 2.9 1.8.9.8 1.7 1.9 2.3 3.3.6 1.3 1 3 1 4.9l.1 7.4c0 1.8-.3 3.4-.8 4.6-.5 1.3-1.2 2.3-2.1 3-.8.8-1.8 1.3-2.8 1.6-1 .3-2 .4-2.9.4-.9 0-1.9-.3-2.9-.7-1-.4-2.1-1-3-1.9-.9-.9-1.8-1.9-2.4-3.3-.6-1.4-1-3-1-4.9l-.1-7.5c0-2 .3-3.5.9-4.8.6-1.3 1.4-2.2 2.3-3 .9-.7 1.9-1.2 2.9-1.4 1-.2 2-.3 2.9-.2zm2.9 17.9l-.1-7.8c0-.2 0-.6-.1-1s-.1-.9-.3-1.3c-.2-.5-.4-.9-.8-1.2-.4-.3-.9-.6-1.6-.6-.6 0-1.1.1-1.4.3-.4.2-.6.6-.8 1-.2.4-.3.8-.4 1.3-.1.4-.1.9-.1 1.2l.1 7.8c0 .4 0 .9.1 1.3.1.5.2.9.4 1.3s.5.8.9 1c.4.3.9.4 1.4.5.7 0 1.2-.1 1.6-.4.4-.3.6-.7.8-1.1.2-.4.2-.9.3-1.3.1-.5.1-.8 0-1" class="st20"/>
  <linearGradient id="SVGID_21_" x1="166.89" x2="342.39" y1="31.42" y2="70.67" gradientUnits="userSpaceOnUse">
    <stop offset="0" stop-color="#283287"/>
    <stop offset=".25" stop-color="#2D378C"/>
    <stop offset=".56" stop-color="#3B469A"/>
    <stop offset=".9" stop-color="#525FB1"/>
    <stop offset="1" stop-color="#5A68B9"/>
  </linearGradient>
  <path d="M231.4 31.8l.3 27.1-6.3-.4-.3-21.4-4-.3-.1-5.8z" class="st21"/>
  <linearGradient id="SVGID_22_" x1="165.81" x2="341.31" y1="36.24" y2="75.49" gradientUnits="userSpaceOnUse">
    <stop offset="0" stop-color="#283287"/>
    <stop offset=".25" stop-color="#2D378C"/>
    <stop offset=".56" stop-color="#3B469A"/>
    <stop offset=".9" stop-color="#525FB1"/>
    <stop offset="1" stop-color="#5A68B9"/>
  </linearGradient>
  <path d="M222.7 44.7l.1 6.1-14.7-.9-.1-6.1z" class="st22"/>
  <linearGradient id="SVGID_23_" x1="165.03" x2="340.53" y1="39.75" y2="79" gradientUnits="userSpaceOnUse">
    <stop offset="0" stop-color="#283287"/>
    <stop offset=".25" stop-color="#2D378C"/>
    <stop offset=".56" stop-color="#3B469A"/>
    <stop offset=".9" stop-color="#525FB1"/>
    <stop offset="1" stop-color="#5A68B9"/>
  </linearGradient>
  <path d="M183 31.1c.4.5.8 1.1 1.1 1.6.3.6.5 1.2.7 1.8.2.6.3 1.2.4 1.9.1.6.1 1.3.1 1.9 0 .8-.1 1.5-.2 2.2-.1.7-.3 1.3-.6 2-.2.6-.5 1.2-.8 1.8-.3.6-.6 1.1-1 1.7L176 56.1l-8.3-.4 6.1-8.4-.1-.1c-.1 0-.1 0-.2.1h-1.2c-1-.1-2-.3-3.1-.8-1-.5-2-1.2-2.9-2-.9-.9-1.6-2-2.1-3.2-.5-1.3-.8-2.7-.8-4.3 0-1.7.3-3.2.9-4.5.6-1.3 1.4-2.4 2.4-3.3 1-.9 2.2-1.5 3.4-1.9 1.3-.4 2.7-.6 4.1-.4.9.1 1.7.2 2.5.4s1.6.5 2.3.9c.7.4 1.4.8 2.1 1.3.9.4 1.4.9 1.9 1.6zm-8.4 9.8c.6 0 1.1 0 1.6-.2s.9-.4 1.2-.8c.3-.3.6-.7.8-1.2.2-.4.3-.9.3-1.4 0-.7-.1-1.2-.4-1.8-.2-.5-.5-.9-.9-1.3s-.8-.6-1.2-.8c-.4-.2-.9-.3-1.4-.4-.5 0-1 0-1.4.2-.5.1-.9.4-1.2.7-.3.3-.6.7-.8 1.2-.2.5-.3 1-.3 1.6 0 .5.1 1 .3 1.4.2.5.4.9.7 1.3.3.4.7.7 1.2 1 .3.3.9.4 1.5.5" class="st23"/>
  <linearGradient id="SVGID_24_" x1="165.82" x2="341.32" y1="36.19" y2="75.44" gradientUnits="userSpaceOnUse">
    <stop offset="0" stop-color="#283287"/>
    <stop offset=".25" stop-color="#2D378C"/>
    <stop offset=".56" stop-color="#3B469A"/>
    <stop offset=".9" stop-color="#525FB1"/>
    <stop offset="1" stop-color="#5A68B9"/>
  </linearGradient>
  <path d="M203.1 29.5l.1 6-9.3-.7-.5 3.8.6-.3c.2-.1.4-.2.7-.2.3-.1.6-.1 1-.1h1.3c1.5.1 2.9.6 4 1.2 1.1.7 2 1.5 2.7 2.5.7 1 1.2 2.1 1.6 3.1.3 1.1.5 2.2.5 3.1 0 1.1-.2 2.2-.5 3.3-.4 1.1-.9 2.2-1.7 3.2-.8 1-1.8 1.8-3.1 2.4-1.3.6-2.8.9-4.5.8-1.4-.1-2.7-.4-3.9-.8-1.2-.5-2.2-1.1-3.1-1.9-.9-.8-1.6-1.7-2.2-2.7-.6-1-.9-2.1-1.2-3.3l6.9.4c.2.2.3.4.5.6l.5.5c.2.1.3.2.5.3.2.1.3.2.5.2.1.1.3.1.4.2.1 0 .2.1.3.1h.5c.5 0 .9-.1 1.4-.2.4-.2.8-.4 1.1-.7.3-.3.6-.7.8-1.1.2-.4.3-.9.3-1.4 0-.5-.1-.9-.2-1.4-.2-.4-.4-.9-.7-1.2-.3-.4-.7-.7-1.1-.9-.4-.2-1-.4-1.6-.4h-1l-.9.3c-.3.2-.6.4-.8.7-.3.3-.5.7-.7 1.1l-5.6-1.8 2.2-15.9 14.2 1.2z" class="st24"/>
</svg>
