<svg id="Layer_1" xmlns="http://www.w3.org/2000/svg" viewBox="170 250 450 110">
  <path fill="#ffffff" d="M197.1 326.3c-2.6.3-4.9.4-7 0-4.9-1-8.8-3.1-11.9-6.3-3.5-3.7-5.5-7.8-6.1-12.1-.3-2.2-.2-4.4.1-6.5.3-2.5 1.3-5.1 3-8 1.7-2.9 3.7-5 5.7-6.6 3.5-2.7 7.4-4.4 11.7-4.8 2.7-.3 5.3-.2 7.9.4 1.1.3 2.8.8 5.3 1.4 1 .1 1.7 0 2.1-.3.1-.1.3-.5.5-1.3h.3v10.2h-.3c-.1-1-.2-1.7-.3-2.1-.3-.9-.7-1.8-1.4-2.7-1.7-2.4-4.3-3.9-7.9-4.6-2.1-.4-4.1-.5-5.8-.3-4.2.6-7.5 2.6-10.1 5.7-3.4 4.1-5.3 9.4-5.5 16.1-.1 4.6 1.1 8.8 3.7 12.6 2.7 3.9 6.2 6.3 10.6 7.2 1.9.4 4.2.4 6.8 0 2.8-.4 6.4-2.2 10.9-5.3v1.2c-4.2 3.5-8.2 5.5-12.3 6.1zm54.5-.1h-25.9v-.3c1.2-.2 2.2-.4 2.9-.9 1.3-.9 1.9-1.9 1.9-3v-35.6c0-.9-.5-1.7-1.5-2.6-.5-.4-.9-.7-1.1-.8-.6-.3-1.4-.4-2.3-.5v-.3H240v.3c-1.3.2-2.5.7-3.4 1.4-.9.8-1.5 1.6-1.6 2.5v35.3c.1.9.6 1.6 1.4 2.3.7.5 1.6.9 2.9.9h7.4c3 0 5.1-2.1 6.2-5.8h.3l-1.6 7.1zm37.4-19.1h-13.3l6.4-20.3 6.9 20.3zm14.8 19.1v-.3c-2-.2-3.5-1.1-4.4-2.9-.8-1.9-1.3-3.3-1.5-4-4.1-12.1-6.2-18.2-6.3-18.4l-6.2-18.5h-3.3L271.4 316l-1.5 4.8c-.4 1.2-.9 2.1-1.5 2.9-1.1 1.5-2.6 2.2-4.2 2.2v.4h10.3v-.3c-1.5-.2-2.5-.7-2.9-1.3-.3-.4-.5-1.2-.5-2.2.4-2.1.8-3.6 1.1-4.6l3.1-9.3h14.1c1.3 3.7 1.9 5.5 1.9 5.4l1.9 5.3c.7 1.9.9 3.2.9 3.7.1 1.2-.4 2-1.3 2.5-.6.3-1.6.5-3.1.7v.3h14.1zm39.8-5.5c-2.1 3.7-5.8 5.7-11.1 5.8-2.2.1-4-.1-5.2-.5-1.4-.6-3-1.3-5-2-.1-.1-.2-.1-.3-.1-.8 0-1.2.8-1.4 2.3h-.3v-10.5h.3c.3 2.6 1.4 4.7 3.1 6.4 1.7 1.7 3.9 2.8 6.4 3.2 1.7.3 3.1.2 4 0 3.5-.7 5.7-2.2 6.7-4.7.3-.9.5-2 .5-3.3-.1-2.9-1.6-5.5-4.9-7.6-2.9-1.9-6-3.5-9-5.4-3.4-2.2-5.4-4.9-5.9-7.8-.3-1.3-.4-2.7-.1-4.1.5-2.9 1.9-5.2 3.9-7.1 2.2-2 5.1-3.2 8.5-3.3 1.9-.1 3.7.4 5.3.9 1.4.5 2.3.7 3 .6.5-.1.8-.5.8-1.3h.3v8.9h-.2c-.6-2.6-1.6-4.5-2.9-5.8-.9-.8-1.7-1.4-2.6-1.7-.8-.3-2-.6-3.6-.7-2.7-.1-4.8.9-6.2 2.6-1.5 1.7-2.3 4-2.3 6.8s1.4 5.3 4 7.4c2.7 1.7 5.5 3.3 8.2 5 3.3 2 5.5 4.3 6.6 6.7.7 1.5.9 3.5.7 5.9-.1 1.1-.6 2.2-1.3 3.4zm48 0c-2.1 3.7-5.8 5.7-11.1 5.8-2.2.1-4-.1-5.2-.5-1.4-.6-3-1.3-5-2-.1-.1-.2-.1-.3-.1-.8 0-1.2.8-1.4 2.3h-.3v-10.5h.3c.3 2.6 1.4 4.7 3.1 6.4 1.7 1.7 3.9 2.8 6.4 3.2 1.7.3 3.1.2 4 0 3.5-.7 5.7-2.2 6.7-4.7.3-.9.5-2 .5-3.3-.1-2.9-1.6-5.5-4.9-7.6-2.9-1.9-6-3.5-9-5.4-3.4-2.2-5.4-4.9-5.9-7.8-.3-1.3-.4-2.7-.1-4.1.5-2.9 1.9-5.2 3.9-7.1 2.2-2 5.1-3.2 8.5-3.3 1.9-.1 3.7.4 5.3.9 1.4.5 2.3.7 2.9.6.5-.1.8-.5.8-1.3h.3v8.9h-.3c-.6-2.6-1.6-4.5-2.9-5.8-.9-.8-1.7-1.4-2.6-1.7-.8-.3-2-.6-3.6-.7-2.7-.1-4.8.9-6.2 2.6-1.5 1.7-2.3 4-2.3 6.8s1.4 5.3 4 7.4c2.7 1.7 5.5 3.3 8.2 5 3.3 2 5.5 4.3 6.6 6.7.7 1.5.9 3.5.7 5.9 0 1.1-.5 2.2-1.1 3.4zm37.1-38.2c-1.6.2-2.7.5-3.4 1.1-.9.7-1.4 1.7-1.4 2.9v35.3c0 1.5.5 2.6 1.7 3.3.8.5 1.9.7 3.1.8v.3h-14.3v-.3c1.4-.1 2.4-.3 3.1-.8 1.2-.9 1.8-2 1.8-3.2v-35.3c0-1.3-.5-2.2-1.4-2.9-.7-.5-1.7-.9-3.4-1.1v-.3h14.3v.2zm44.5 43.8c-2.6.3-4.9.4-7 0-4.9-1-8.8-3.1-11.9-6.3-3.5-3.7-5.5-7.8-6.1-12.1-.3-2.2-.2-4.4.1-6.5.3-2.5 1.3-5.1 3-8 1.7-2.9 3.7-5 5.7-6.6 3.5-2.7 7.4-4.4 11.7-4.8 2.7-.3 5.3-.2 7.9.4 1.1.3 2.8.8 5.3 1.4 1 .1 1.7 0 2.1-.3.1-.1.3-.5.5-1.3h.3v10.2h-.3c-.1-1-.2-1.7-.3-2.1-.3-.9-.7-1.8-1.4-2.7-1.7-2.4-4.3-3.9-7.9-4.6-2.1-.4-4.1-.5-5.8-.3-4.2.6-7.5 2.6-10.1 5.7-3.4 4.1-5.3 9.4-5.5 16.1-.1 4.6 1.1 8.8 3.7 12.6 2.7 3.9 6.2 6.3 10.6 7.2 1.9.4 4.2.4 6.8 0 2.8-.4 6.4-2.2 10.9-5.3v1.2c-4.3 3.5-8.2 5.5-12.3 6.1z"/>
  <path fill="#E40520" d="M580.4 270c0 1.5-.5 2.9-1.4 4.3-1.3 1.4-2.7 2.1-4.5 2.1-.8 0-1.5-.2-2.2-.6-1.5-.9-2.3-2.4-2.3-4.4 0-1.1.3-2.2.8-3.1.9-1.6 2.5-2.5 4.5-2.8.2-1.3-.7-2.1-2.8-2.4-2.1 0-3.8.4-4.9 1-1.6.9-2.9 2.1-3.9 3.7-.7 1.1-1.5 3-2.3 5.6-.6 2-1.4 4.9-2.4 8.7h8v1.9h-8.4c-1.6 6.1-3.9 13.5-6.7 22.2-3.1 9.3-5.5 16.5-7.6 21.3-2.8 6.3-5.1 10.6-6.6 13-2.2 3.6-4.7 6.6-7.4 9.3-1.9 1.9-3.7 3.3-5.4 4.3-1.3.7-2.7 1-4.4 1-3.4-.1-5.7-1.1-6.9-3.4-.6-1.1-.9-2.4-.9-3.7 0-.8.1-1.5.4-2.2.4-1 1.1-1.9 2-2.5 1-.7 2-1 3.2-1 1.4 0 2.6.5 3.6 1.5.9 1 1.5 2.2 1.6 3.7.1 1.5-.3 2.7-1.3 3.8-.8.8-1.8 1.4-2.9 1.5-.1.3 0 .5.2.7.3.2.6.2 1 .2 1.1 0 2.3-.4 3.6-1.1 1.3-.8 2.1-1.6 2.7-2.5 1.2-1.9 2.5-5.1 3.7-9.6.9-3.3 1.7-6.6 2.6-9.9 1.4-5.5 3.7-13.1 6.7-22.7 3-9.5 5.6-17.4 7.9-23.8h-8.1v-1.9h8.9c1.3-2.8 2.7-5.5 4.4-8.1 2.3-3.4 4.8-6.3 7.6-8.4 3.8-2.9 7.4-4.3 10.8-4.2 1.3.1 2.6.3 3.9.7 2.5.8 4.1 2.6 4.9 5.1.1 1 .3 1.8.3 2.7z"/>
  <path fill="#ffffff" d="M604.3 326.3v-.3c1.1-.1 2.2-.4 3.1-1.1 1-.7 1.5-1.6 1.5-2.6l-1.4-34.8-15.8 38.8-14.8-37.7-1.4 33.3c-.1.8.2 1.7.9 2.5.9 1 2 1.6 3.3 1.6v.3h-10.9v-.3c2.9-.2 4.7-2 4.9-5.2l2-33.3c.1-1.2-.4-2.2-1.2-3.1-1-1.1-2.6-1.8-4.7-1.9v-.3h9.8s4.6 12.1 13.9 36.3l14.7-36.3h8.7v.3c-1.5.3-2.7.9-3.5 1.7-.9.8-1.3 1.7-1.2 2.5l1.5 34.7c.1 3 1.8 4.5 5.1 4.6v.3h-14.5z"/>
</svg>
