<svg xmlns="http://www.w3.org/2000/svg" viewBox="190 340 390 275">
  <path d="M551.2 384.6c-4-3.3-8-6.1-12.4-8.1-21.5-10.5-47.1-5-69.5 7.3-17.1 9.4-28.1 13.1-37.9 11.6a50 50 0 0 1-17.8-6.9c-5.3-3.2-11.2-7.3-18.1-12.4-7.1-5.1-14.3-9.7-21.8-13.3-7.6-3.9-15.2-7-23.1-9.4-40.7-12.6-84-5.3-117.3 29.6l-.1.1a141.6 141.6 0 0 0-18.1 24.6 159 159 0 0 0 7.6 150.2c5.9 9.6 12.4 7.5 4.9-7.8-7.1-16.5-11.2-36-12.7-58.1l-.1-2.8a137.2 137.2 0 0 1 15.2-73.3c2.3-4 4.6-7.8 7.1-11.3 2.6-3.4 5.4-6.8 8.4-10h.1c28.2-29.8 65.2-35.9 100-25.2a141.9 141.9 0 0 1 39.8 20.4h.1a178.8 178.8 0 0 0 28.7 18c4.9 2.1 9.6 3.7 14.7 4.3 13.9 1.9 27.9-2.2 48.3-13.5 47.1-28.5 79.9-2.2 94.3 46.6 1 3.5 4.9 4.1 4.5-.5-.5-21.9-8-45.2-24.8-60.1"/>
  <path d="M540.9 426.6h-17.2v33.3a45.7 45.7 0 0 0-23.6-6.8h-.7a39.8 39.8 0 0 0-28.3 11 36.2 36.2 0 0 0-11.4 27.4c0 26.2 18.2 40.4 40.5 40.2a42 42 0 0 0 5-.3 37.6 37.6 0 0 0 35.8-38.9v-65.9zm-24.8 83.3a18.5 18.5 0 0 1-15.5 7.1h-.5a20 20 0 0 1-15.5-7.2 27.7 27.7 0 0 1-5.9-18.1c0-6.6 2-12 6-16.7 4.1-4.4 9.2-6.8 15.4-6.8h.5c6 0 11 2.3 15.1 6.8 3.9 4.7 6 10.1 6 16.7-.1 7.5-2 13.7-5.6 18.2m-142.3-56.8h-.9a40.2 40.2 0 0 0-28.3 11 36.9 36.9 0 0 0-11.4 27.4c0 26.2 18.4 40.4 40.6 40.2a42 42 0 0 0 5-.3 37.5 37.5 0 0 0 35.7-38.9c-.1-23.9-17.7-38.9-40.7-39.4m15.8 56.8a18.2 18.2 0 0 1-15.4 7.1h-.5a20 20 0 0 1-15.5-7.2c-4.1-4.8-6-10.8-6-18.1 0-6.6 2.1-12 6.2-16.7 3.9-4.4 9-6.8 15.4-6.8h.5c6 0 11 2.3 15.1 6.8a25 25 0 0 1 5.9 16.7 28 28 0 0 1-5.7 18.2m50.7-13.4v-69.9h-18.5v72.9c0 21.1 12 31.6 36.1 31.6v-16.6c-5.3 0-9.5-1.7-12.6-4.8-3.3-3.3-5-7.7-5-13.2" fill-rule="evenodd" clip-rule="evenodd"/>
  <path d="M282.6 605.7c14 .3 24.1-3 32.8-8.9 8.6-6 12.9-13.7 12.9-23.5a26 26 0 0 0-8.7-20.5c-5.7-4.8-19.4-10.6-37.6-5.7-22.3 6-21.2-8.9-10.4-9.5l10.4-1.1 5-.4a37.7 37.7 0 0 0 35.7-38.9 39 39 0 0 0-6.6-22.5l9.8-10c-2-4.1-6-8.6-11.1-11.3l-10.4 10.5a46 46 0 0 0-22.3-6h-.9a39.8 39.8 0 0 0-28.2 11 36.2 36.2 0 0 0-11.4 27.4c0 17 7.4 29.1 22 36-11.1 2.7-19.8 20-21.3 30.9-.4 2.6-3.2 23 15 35.1a43.7 43.7 0 0 0 25.3 7.4zM260.8 495c0-6.6 2.1-12 6.2-16.7a20 20 0 0 1 15.4-6.8h.4c6 0 11 2.3 15.1 6.8 3.9 4.7 6 10.1 6 16.7a29 29 0 0 1-5.6 18.2 18.8 18.8 0 0 1-15.5 7.1h-.4a20 20 0 0 1-15.5-7.2c-4-4.9-6.1-10.9-6.1-18.1m42.1 90a34.8 34.8 0 0 1-19.9 4.4c-11.4-.6-32.6-6.2-26.4-26.8 0 0 3.1 1.8 11.1 2 7.9.2 13-2.4 24.1-3.2 11.1-.7 18.4 4.4 18.4 12.8 0 4.3-2.4 7.8-7.3 10.8"/>
  <linearGradient id="a" gradientUnits="userSpaceOnUse" x1="197.6" y1="455.8" x2="574" y2="455.8">
    <stop offset="0" stop-color="#b6985f"/>
    <stop offset=".2" stop-color="#d0ae69"/>
    <stop offset=".7" stop-color="#f2d79d"/>
    <stop offset="1" stop-color="#d3ab4f"/>
  </linearGradient>
  <path d="M549 384.6c-4-3.3-8-6.1-12.4-8.1-21.5-10.5-47.1-5-69.5 7.3-17.1 9.4-28.1 13.1-37.9 11.6a50 50 0 0 1-17.8-6.9c-5.3-3.2-11.2-7.3-18.1-12.4-7.1-5.1-14.3-9.7-21.8-13.3-7.6-3.9-15.2-7-23.1-9.4-40.7-12.6-84-5.3-117.3 29.6l-.1.1a141.6 141.6 0 0 0-18.1 24.6 159 159 0 0 0 7.7 150.4c5.9 9.6 12.4 7.5 4.9-7.8-7.1-16.5-11.2-36-12.7-58.1l-.1-2.8a137.2 137.2 0 0 1 15.2-73.3c2.3-4 4.6-7.8 7.1-11.3 2.6-3.4 5.4-6.8 8.4-10h.1c28.2-29.8 65.2-35.9 100-25.2a126.7 126.7 0 0 1 39.8 20.4h.1a178.8 178.8 0 0 0 28.7 18c4.9 2.1 9.6 3.7 14.7 4.3 13.9 1.9 27.9-2.2 48.3-13.5 47.1-28.5 79.9-2.2 94.3 46.6 1 3.5 4.9 4.1 4.5-.5-.7-22.1-8.1-45.4-24.9-60.3" fill="url(#a)"/>
  <linearGradient id="b" gradientUnits="userSpaceOnUse" x1="330.9" y1="479.2" x2="538.7" y2="479.2">
    <stop offset="0" stop-color="#b6985f"/>
    <stop offset=".2" stop-color="#d0ae69"/>
    <stop offset=".7" stop-color="#f2d79d"/>
    <stop offset="1" stop-color="#d3ab4f"/>
  </linearGradient>
  <path d="M538.7 426.6h-17.2v33.3a45.7 45.7 0 0 0-23.6-6.8h-.7a39.8 39.8 0 0 0-28.3 11 36.2 36.2 0 0 0-11.4 27.4c0 26.2 18.2 40.4 40.5 40.2a42 42 0 0 0 5-.3 37.6 37.6 0 0 0 35.8-38.9v-65.9zm-24.9 83.3a18.5 18.5 0 0 1-15.5 7.1h-.5a20 20 0 0 1-15.5-7.2 27.7 27.7 0 0 1-5.9-18.1c0-6.6 2-12 6-16.7 4.1-4.4 9.2-6.8 15.4-6.8h.5c6 0 11 2.3 15.1 6.8 3.9 4.7 6 10.1 6 16.7 0 7.5-2 13.7-5.6 18.2m-142.3-56.8h-.9a40.2 40.2 0 0 0-28.3 11 36.9 36.9 0 0 0-11.4 27.4c0 26.2 18.4 40.4 40.6 40.2a42 42 0 0 0 5-.3 37.5 37.5 0 0 0 35.7-38.9c0-23.9-17.6-38.9-40.7-39.4m15.9 56.8A18.2 18.2 0 0 1 372 517h-.5a20 20 0 0 1-15.5-7.2c-4.1-4.8-6-10.8-6-18.1 0-6.6 2.1-12 6.2-16.7 3.9-4.4 9-6.8 15.4-6.8h.5c6 0 11 2.3 15.1 6.8a25 25 0 0 1 5.9 16.7c-.2 7.5-2 13.7-5.7 18.2m50.7-13.4v-69.9h-18.5v72.9c0 21.1 12 31.6 36.1 31.6v-16.6c-5.3 0-9.5-1.7-12.6-4.8-3.4-3.3-5-7.7-5-13.2" fill-rule="evenodd" clip-rule="evenodd" fill="url(#b)"/>
  <linearGradient id="c" gradientUnits="userSpaceOnUse" x1="239.3" y1="529.6" x2="326.1" y2="529.6">
    <stop offset="0" stop-color="#b6985f"/>
    <stop offset=".2" stop-color="#d0ae69"/>
    <stop offset=".7" stop-color="#f2d79d"/>
    <stop offset="1" stop-color="#d3ab4f"/>
  </linearGradient>
  <path d="M280.4 605.7c14 .3 24.1-3 32.8-8.9 8.6-6 12.9-13.7 12.9-23.5a26 26 0 0 0-8.7-20.5c-5.7-4.8-19.4-10.6-37.6-5.7-22.3 6-21.2-8.9-10.4-9.5l10.4-1.1 5-.4a37.7 37.7 0 0 0 35.7-38.9 39 39 0 0 0-6.6-22.5l9.8-10c-2-4.1-6-8.6-11.1-11.3l-10.4 10.5c-6.3-3.7-14-5.8-22.3-6h-.9a39.8 39.8 0 0 0-28.2 11 36.2 36.2 0 0 0-11.4 27.4c0 17 7.4 29.1 22 36-11.1 2.7-19.8 20-21.3 30.9-.4 2.6-3.2 23 15 35.1a43.7 43.7 0 0 0 25.3 7.4zM258.5 495c0-6.6 2.1-12 6.2-16.7a20 20 0 0 1 15.4-6.8h.4c6 0 11 2.3 15.1 6.8 3.9 4.7 6 10.1 6 16.7a29 29 0 0 1-5.6 18.2 18.8 18.8 0 0 1-15.5 7.1h-.4a20 20 0 0 1-15.5-7.2c-4-4.9-6.1-10.9-6.1-18.1m42.2 90a35 35 0 0 1-19.9 4.4c-11.4-.6-32.6-6.2-26.4-26.8 0 0 3.1 1.8 11.1 2 7.9.2 13-2.4 24.1-3.2 11.1-.7 18.4 4.4 18.4 12.8-.1 4.3-2.5 7.8-7.3 10.8" fill="url(#c)"/>
</svg>
