<svg xmlns="http://www.w3.org/2000/svg" viewBox="280 110 890 370">
  <path fill="#ee1d3a" d="M787.7 345.5h-96.6c-17.8 0-32.2-14.4-32.2-32.2 0-17.8 14.4-32.2 32.2-32.2h32.2v-34.2c0-17.8 14.4-32.2 32.2-32.2 17.8 0 32.2 14.4 32.2 32.2v98.6zm-293.9-64.4c0-37.8 30.6-68.4 68.4-68.4 18.2 0 34.8 7.1 47 18.7 0 0-70.6 45.8-111.6 72.4-2.4-7.1-3.8-14.8-3.8-22.7m261.7-98.6c-35.6 0-64.4 28.8-64.4 64.4v2c-30.8 0-56.4 21.6-62.9 50.4-8 29-34.5 50.2-66 50.2-18.2 0-34.7-7.1-47-18.7l139.1-90.3c-15.6-35.4-51-60-92.1-60-55.6 0-100.6 45.1-100.6 100.6 0 55.6 45.1 100.6 100.6 100.6 29.7 0 56.4-12.9 74.8-33.3 11.5 17.6 31.4 29.2 54 29.3h128.8V246.9c0-35.6-28.7-64.4-64.3-64.4m-382.4 0c-18.1 0-34.8 6-48.3 16.1v-78.5h-32.2v257.6h32.2V263c0-26.7 21.6-48.3 48.3-48.3 26.7 0 48.3 21.6 48.3 48.3v114.7h32.2V263c0-44.5-36.1-80.5-80.5-80.5m640 34.2v-32.2h-48.3v-64.4h-32.2v64.4h-16.1v32.2h16.1v80.5c0 44.4 36.1 80.5 80.5 80.5v-32.2c-26.6 0-48.3-21.7-48.3-48.3v-80.5h48.3zm-153-32.2h-32.2v193.2h32.2V265c0-26.7 21.6-48.3 48.3-48.3v-32.2c-18.1 0-34.8 6-48.3 16.1v-16.1zM300.2 430.9h-7.6v-4.5h7.6v-12.8h4.9v12.8h8.5v4.5h-8.5v32h-4.9v-32zm50.6 32.1h-4.7v-5.7c-2.4 4.7-7 6.5-12.1 6.5-4.7 0-8.7-1.7-12.8-6.5-2.2-2.3-2.6-6.7-2.6-11.5v-19.3h4.9v19.3c0 2.8.1 5.6 1.6 8.1 2 3.5 5.5 5.3 9.5 5.3 3.5 0 6.8-1.6 8.9-4.5 1.9-2.6 2.2-5.7 2.2-8.9v-19.3h4.9V463zm9-36.5h4.7v5.3c1.9-4.3 6.1-5.9 10.6-6.1v4.9c-2.7.2-4.5.8-6.6 2.5-3.4 2.9-3.7 5.3-3.7 9.5V463h-4.9v-36.5zm21.7 0h4.7v5.3c2.8-3.9 6.5-6.1 11.3-6.1 4.9 0 9.7 2.1 12.9 6.1 2.8 3.5 3.3 7.4 3.3 12V463h-4.9v-19.2c0-3.1-.3-6.1-2.1-8.7-2.2-3.1-5.7-4.7-9.4-4.7-3.4 0-6.9 1.7-8.9 4.5-1.9 2.6-1.9 5.8-1.9 8.9V463h-4.9v-36.5zM477 463h-4.7v-5.7c-2.4 4.7-7 6.5-12.1 6.5-4.7 0-8.7-1.7-12.8-6.5-2.2-2.3-2.6-6.7-2.6-11.5v-19.3h4.9v19.3c0 2.8.1 5.6 1.6 8.1 2 3.5 5.5 5.3 9.5 5.3 3.5 0 6.8-1.6 8.9-4.5 1.9-2.6 2.2-5.7 2.2-8.9v-19.3h4.9V463zm13.8-36.5v6.3c2.9-4.7 9.3-7.1 14.5-7.1 5.3 0 10.3 2.1 14.9 7.1 2.2 2 4.3 6.8 4.3 12.1 0 10.9-9.1 19-19.8 19-5.4 0-11.4-2.6-13.8-7.7v19.6H486v-49.3h4.8zm28.9 18.3c0-7.9-6.4-14.4-14.3-14.4-8 0-14.6 5.9-14.6 14 0 4 1 7.3 3.9 10.2 2.7 2.9 6.5 4.5 10.4 4.5 8 0 14.6-6.1 14.6-14.3zm38.8-13.9h-7.6v-4.5h7.6v-12.8h4.9v12.8h8.5v4.5h-8.5v32h-4.9v-32zm19.9-17.2h4.9v18.1c2.1-4 6.7-6.1 11.1-6.1 4.7 0 9.3 2 12.5 5.6 3.1 3.6 3.8 7.8 3.8 12.5V463h-4.9v-19.2c0-3.2-.3-6.1-2.1-8.7-2.1-3-5.7-4.6-9.4-4.6-3.4 0-6.9 1.7-9 4.5-1.9 2.5-1.9 5.8-1.9 8.9V463h-4.9v-49.3zm44.2 32.8c.3 6.9 7 12.6 13.7 12.6 5.4 0 10.9-3 13.1-8h5.1c-2.5 7.3-10 12.7-17.7 12.7-10.7 0-19.2-8.4-19.2-19.1 0-10.6 8.4-19.1 19-19.1 5.7 0 11 2.6 14.7 7.1 3.4 4.2 4.1 8.5 4.3 13.7h-33zm28.1-4.5c-1.3-6.5-7.2-11.6-13.9-11.6-6.9 0-12.9 4.9-14.1 11.6h28zm36.9-11.1H682v-4.5h5.7c-.3-8.2 5-12.7 13-12.8h.9v4.5h-.9c-5.1 0-8.1 2.5-8.1 7.6v.7h9.1v4.5h-9.1v32h-4.9v-32zm21.8 15.6c.3 6.9 7 12.6 13.7 12.6 5.4 0 10.9-3 13.1-8h5.1c-2.5 7.3-10 12.7-17.7 12.7-10.7 0-19.2-8.4-19.2-19.1 0-10.6 8.4-19.1 19-19.1 5.7 0 11 2.6 14.7 7.1 3.4 4.2 4.1 8.5 4.3 13.7h-33zm28.1-4.5c-1.3-6.5-7.2-11.6-13.9-11.6-6.9 0-12.9 4.9-14.1 11.6h28zm15.1 4.5c.3 6.9 7 12.6 13.7 12.6 5.4 0 10.9-3 13.1-8h5.1c-2.5 7.3-10 12.7-17.7 12.7-10.7 0-19.2-8.4-19.2-19.1 0-10.6 8.4-19.1 19-19.1 5.7 0 11 2.6 14.7 7.1 3.4 4.2 4.1 8.5 4.3 13.7h-33zm28.1-4.5c-1.3-6.5-7.2-11.6-13.9-11.6-6.9 0-12.9 4.9-14.1 11.6h28zm12-28.3h4.9V463h-4.9v-49.3zm72.5 44.1c0 5.7-.2 9.1-4.3 13.5-3.5 3.9-9.2 5.9-14.4 5.9-8 0-15.9-5.4-17.9-13.4h4.8c2.9 5.4 7.2 8.7 13.5 8.7 4.7 0 9.5-2.1 11.9-6.3 1.6-2.9 1.6-5.2 1.6-8.4v-2c-2.3 5.5-8.6 8.1-14.3 8.1-4.8 0-9.7-2.1-13.1-5.3-3.9-3.7-5.7-8.3-5.7-13.7 0-5.1 2.1-9.8 3.5-11.3 4.8-6.1 9.9-7.9 15.1-7.9 5.8 0 11.7 2.6 14.5 7.9v-7.1h4.7v31.3zm-33-13.5c0 8.1 5.7 14.7 14 14.7 3.9 0 7.3-1.3 10-4.1 2.5-2.6 4.1-6.6 4.1-10.2 0-8.2-6.5-14.3-14.6-14.3-7.5 0-13.5 6.5-13.5 13.9zm78.4.2c0 10.4-8.4 19.4-19 19.4-10.3 0-19.2-8.4-19.2-18.9 0-10.6 8.5-19.3 19.2-19.3 10.2 0 19 8.6 19 18.8zm-33.2.4c0 7.8 6.4 14.1 14.2 14.1 8.1 0 14-6.7 14-14.6 0-4-1.3-7.3-4.3-10.1-2.6-2.5-6.1-4-9.7-4-8 .1-14.2 6.7-14.2 14.6zm76.6-.4c0 10.4-8.4 19.4-19 19.4-10.3 0-19.2-8.4-19.2-18.9 0-10.6 8.5-19.3 19.2-19.3 10.2 0 19 8.6 19 18.8zm-33.1.4c0 7.8 6.4 14.1 14.2 14.1 8.1 0 14-6.7 14-14.6 0-4-1.3-7.3-4.3-10.1-2.6-2.5-6.1-4-9.7-4-8.1.1-14.2 6.7-14.2 14.6zm77.2 18.1h-4.7v-6.7c-3.7 5.1-8.4 7.5-14.7 7.5-5.3 0-10.1-2.1-15.3-7.5-1.8-1.5-4-6.3-4-11.7 0-10.9 9-19 19.6-19 5.5 0 11.1 2.4 14.1 7.1v-19.2h4.9V463zm-19.4-32.6c-7.7 0-14.3 6.3-14.3 14.1 0 8 6.5 14.5 14.5 14.5s14.5-6.5 14.5-14.5c-.1-8-6.8-14.1-14.7-14.1zm29.4-16.7h4.9v36.4h-4.9v-36.4zm0 40.9h4.9v8.4h-4.9v-8.4zm33.4-248.7h-1.1c-5.9 0-9.9-4.7-9.9-10.4 0-6.4 4.5-11.6 11.1-11.6 3 0 6 1.3 8.1 3.4 2.2 2.3 3 5 3 8.1 0 3.4-1.2 5.6-3 8.4l-8.5 12.9h-6.8l7.1-10.8zm-5.2-11c0 3.1 2.1 5.6 5.4 5.6 3 0 5.3-2.6 5.3-5.6 0-3-2.4-5.4-5.4-5.4-3 0-5.3 2.6-5.3 5.4zm37-10.4l-7.2 10.9 1.6-.1c2.5 0 4.9 1.2 6.7 3 2 2.1 2.8 4.6 2.8 7.7 0 6.2-4.8 11.4-11.1 11.4-6.5 0-11.2-5.1-11.2-11.5 0-2.8.9-5.3 2.4-7.4l9.2-14h6.8zm-12.5 21.6c0 3.1 2.2 5.7 5.4 5.7 3 0 5.4-2.5 5.4-5.4 0-3.1-2.4-5.7-5.4-5.7-3.1-.1-5.4 2.3-5.4 5.4zm22-5.8h12.1v5.1h-12.1v-5.1zm20-10.3h-4v-5.5h9.8v32.2h-5.8V190zm33.5 16.1c0 2.9-.6 5.6-2.5 7.8-2 2.3-5 3.5-8 3.5s-5.9-1-8.1-3.1c-2.5-2.3-3-5.2-3-8.4v-10.7c0-2.8.6-5.6 2.5-7.8 2-2.3 5.2-3.5 8.3-3.5 2.9 0 5.8 1 7.8 3.1 2.3 2.2 3 5.2 3 8.2v10.9zm-15.8-.4c0 1.5.1 3.2 1.1 4.4.9 1 2.4 1.7 3.8 1.7 1.5 0 3-.6 3.9-1.8 1-1.2 1.1-2.7 1.1-4.2v-10.7c0-3.1-1.8-5.5-5-5.5-1.4 0-2.9.7-3.8 1.8-.9 1.2-1.1 2.5-1.1 4v10.3zm32.6-15.7h-12.9v-5.5h18.9v5.5l-11.6 26.7h-6.4l12-26.7z"/>
</svg>
