<svg id="lbc-colour-strap" xmlns="http://www.w3.org/2000/svg" viewBox="120 190 345 235">
  <style>
    .st0{fill:url(#SVGID_1_);} .st1{fill:url(#SVGID_2_);} .st2{fill:url(#SVGID_3_);} .st3{fill:url(#SVGID_4_);} .st4{fill:#FFFFFF;} .st5{fill:url(#SVGID_5_);} .st6{fill:url(#SVGID_6_);} .st7{fill:#4D4D4F;} .st8{fill:url(#SVGID_7_);}
  </style>
  <linearGradient id="SVGID_1_" gradientUnits="userSpaceOnUse" x1="349.81" y1="192.35" x2="349.81" y2="192.35">
    <stop offset="0" stop-color="#ED3024"/>
    <stop offset=".46" stop-color="#EA2F26"/>
    <stop offset=".73" stop-color="#E22A2B"/>
    <stop offset=".95" stop-color="#D42334"/>
    <stop offset="1" stop-color="#D02137"/>
  </linearGradient>
  <linearGradient id="SVGID_2_" gradientUnits="userSpaceOnUse" x1="353.15" y1="213.01" x2="353.15" y2="213.01">
    <stop offset="0" stop-color="#0092D0"/>
    <stop offset=".39" stop-color="#0190CD"/>
    <stop offset=".62" stop-color="#0587C5"/>
    <stop offset=".81" stop-color="#0C79B7"/>
    <stop offset=".98" stop-color="#1666A3"/>
    <stop offset="1" stop-color="#1763A0"/>
  </linearGradient>
  <linearGradient id="SVGID_3_" gradientUnits="userSpaceOnUse" x1="135.01" y1="380.93" x2="135.01" y2="198.66">
    <stop offset="0" stop-color="#BD1E34"/>
    <stop offset="1" stop-color="#DA291C"/>
  </linearGradient>
  <path class="st2" d="M138.8 198.7l-8.4 15.2v167l9.2-12.5z"/>
  <linearGradient id="SVGID_4_" gradientUnits="userSpaceOnUse" x1="196.28" y1="355.43" x2="185.82" y2="235.84">
    <stop offset="0" stop-color="#DA291C"/>
    <stop offset=".4" stop-color="#D6251E"/>
    <stop offset=".8" stop-color="#CC1922"/>
    <stop offset="1" stop-color="#C31026"/>
  </linearGradient>
  <path class="st3" d="M242.3 375l-103.5-5.5V198.7l103.5 11.5z"/>
  <path class="st4" d="M188.9 327.4V221.5H166v127h54.9v-21.1z"/>
  <linearGradient id="SVGID_5_" gradientUnits="userSpaceOnUse" x1="239.36" y1="209.05" x2="236.31" y2="199.73">
    <stop offset="0" stop-color="#0591CD"/>
    <stop offset=".29" stop-color="#0A8DCA"/>
    <stop offset=".63" stop-color="#1882BF"/>
    <stop offset=".99" stop-color="#2F71AF"/>
    <stop offset="1" stop-color="#3070AE"/>
  </linearGradient>
  <path class="st5" d="M246.4 196.3l-19.3 9.4 20.2 2.1z"/>
  <linearGradient id="SVGID_6_" gradientUnits="userSpaceOnUse" x1="298.07" y1="219.78" x2="298.07" y2="353.76">
    <stop offset="0" stop-color="#105387"/>
    <stop offset="1" stop-color="#0591CD"/>
  </linearGradient>
  <path class="st6" d="M349.8 363.2l-103.5-10.1.1-156.8 103.4-3.9z"/>
  <path class="st4" d="M319.2 273.6c7-4.7 10.5-12.8 10.5-24.7v-4.4c0-20.6-9.7-30.2-30.5-30.2h-31.1v127.1h32.3c20.1 0 31.2-11 31.2-31v-10.1c0-13.4-4.1-22.1-12.4-26.7zM291 285.7h6.9c7.2 0 10.8 2.1 10.8 13.3v10.8c0 8.7-3.2 10.4-8.3 10.4H291v-34.5zm15.7-32.5c0 9.9-4.8 11.3-9.9 11.3H291v-29.2h7.6c4.9 0 8.1 1.9 8.1 11v6.9z"/>
  <path class="st7" d="M353.9 377.3l-11.3-11.5 12.9 1.6z"/>
  <linearGradient id="SVGID_7_" gradientUnits="userSpaceOnUse" x1="405.63" y1="407.61" x2="405.63" y2="217.02">
    <stop offset="0" stop-color="#58595B"/>
    <stop offset=".28" stop-color="#555657"/>
    <stop offset=".53" stop-color="#4B4B4D"/>
    <stop offset=".76" stop-color="#3B393B"/>
    <stop offset=".99" stop-color="#242021"/>
    <stop offset="1" stop-color="#231F20"/>
  </linearGradient>
  <path class="st8" d="M446.8 368.3l-92.9 9V213.1l103.5-4.5z"/>
  <path class="st4" d="M433.1 273.6v-13.8c0-21.2-10.9-32.8-30.7-32.8s-30.7 11.7-30.7 32.8v64.3c0 21.2 10.9 32.8 30.7 32.8s30.7-11.7 30.7-32.8v-18.2h-21.9v19.4c0 5.1-1 10.3-8.3 10.3-7.3 0-8.3-5.2-8.3-10.3v-66.7c0-9.2 4.4-10.4 8.3-10.4s8.3 1.2 8.3 10.4v15h21.9z"/>
  <path d="M121.2 405h2.8v15.3h4.6v2.5h-7.4V405zm14.3 7.5h3.8v2.5h-3.8v5.2h4.8v2.5h-7.6V405h7.6v2.5h-4.8v5zm18.4 10.3h-2.8l-.5-3.2h-3.4l-.5 3.2h-2.6L147 405h4.1l2.8 17.8zm-6.4-5.6h2.7l-1.3-9-1.4 9zM158 405h4.4c2.8 0 4.2 1.6 4.2 4.4v9c0 2.8-1.4 4.4-4.2 4.4H158V405zm2.8 2.6v12.7h1.6c.9 0 1.4-.5 1.4-1.7v-9.3c0-1.3-.5-1.7-1.4-1.7h-1.6zm10.4-2.6h2.8v17.8h-2.8V405zm10.1 4.9v12.9h-2.5V405h3.5l2.9 10.7V405h2.5v17.8h-2.9l-3.5-12.9zm15.3 3h3.9v5.6c0 2.8-1.4 4.5-4.2 4.5s-4.2-1.6-4.2-4.5v-9.3c0-2.8 1.4-4.5 4.2-4.5s4.2 1.6 4.2 4.5v1.7h-2.6V409c0-1.3-.6-1.8-1.4-1.8-.9 0-1.4.5-1.4 1.8v9.6c0 1.3.6 1.7 1.4 1.7.9 0 1.4-.5 1.4-1.7v-3.3h-1.3v-2.4zm23.7-3.8v.6c0 1.8-.6 3-1.8 3.6 1.5.6 2.1 1.9 2.1 3.8v1.4c0 2.7-1.4 4.2-4.2 4.2H212V405h4.2c2.8 0 4.1 1.4 4.1 4.1zm-5.6-1.5v4.7h1.1c1 0 1.7-.5 1.7-1.9v-1c0-1.3-.4-1.8-1.4-1.8h-1.4zm0 7.2v5.5h1.6c.9 0 1.4-.4 1.4-1.8V417c0-1.7-.5-2.2-1.8-2.2h-1.2zm16.2 8c-.2-.5-.3-.7-.3-2.2v-2.8c0-1.7-.6-2.3-1.8-2.3h-1v7.2H225V405h4.2c2.9 0 4.1 1.3 4.1 4.1v1.4c0 1.8-.6 3-1.8 3.6 1.4.6 1.9 1.9 1.9 3.8v2.7c0 .9 0 1.5.3 2.2h-2.8zm-3.1-15.2v5.5h1.1c1 0 1.7-.5 1.7-1.9v-1.8c0-1.3-.4-1.8-1.4-1.8h-1.4zM238 405h2.8v17.8H238V405zm6.9 0h8.6v2.5h-2.9v15.3h-2.8v-15.3h-2.9V405zm20.8 17.8h-2.8l-.5-3.2H259l-.5 3.2h-2.6l2.8-17.8h4.1l2.9 17.8zm-6.4-5.6h2.7l-1.3-9-1.4 9zm10.5-12.2h2.8v17.8h-2.8V405zm10.1 4.9v12.9h-2.5V405h3.5l2.9 10.7V405h2.5v17.8h-2.9l-3.5-12.9zm11.2-2.2V405h2.7v2.4l-1.2 2.8h-1.1l.7-2.5h-1.1zm11.1-2.9c2.7 0 4.1 1.6 4.1 4.5v.7h-2.6v-.9c0-1.3-.5-1.8-1.4-1.8-.9 0-1.4.5-1.4 1.8 0 3.7 5.5 4.3 5.5 9.4 0 2.8-1.4 4.5-4.2 4.5-2.7 0-4.2-1.6-4.2-4.5v-1.2h2.6v1.4c0 1.3.6 1.7 1.4 1.7s1.4-.5 1.4-1.7c0-3.7-5.5-4.3-5.5-9.4.2-2.9 1.6-4.5 4.3-4.5zm23.4 11.4v2.4c0 2.8-1.4 4.5-4.2 4.5s-4.2-1.6-4.2-4.5v-9.3c0-2.8 1.4-4.5 4.2-4.5s4.2 1.6 4.2 4.5v1.7H323v-1.9c0-1.3-.6-1.8-1.4-1.8s-1.4.5-1.4 1.8v9.6c0 1.3.6 1.7 1.4 1.7s1.4-.5 1.4-1.7v-2.5h2.6zm4.3-6.9c0-2.8 1.5-4.5 4.2-4.5s4.2 1.6 4.2 4.5v9.3c0 2.8-1.5 4.5-4.2 4.5s-4.2-1.6-4.2-4.5v-9.3zm2.8 9.4c0 1.3.6 1.8 1.4 1.8s1.4-.5 1.4-1.8v-9.6c0-1.3-.6-1.8-1.4-1.8s-1.4.5-1.4 1.8v9.6zm12.8-8.8v12.9H343V405h3.5l2.9 10.7V405h2.5v17.8H349l-3.5-12.9zm15.4 9.6L363 405h2.6l-2.7 17.8h-4.2L356 405h2.8l2.1 14.5zm11.5-7h3.8v2.5h-3.8v5.2h4.8v2.5h-7.6V405h7.6v2.5h-4.8v5zm15.2 10.3c-.2-.5-.3-.7-.3-2.2v-2.8c0-1.7-.6-2.3-1.8-2.3h-1v7.2h-2.8V405h4.2c2.9 0 4.1 1.3 4.1 4.1v1.4c0 1.8-.6 3-1.8 3.6 1.4.6 1.9 1.9 1.9 3.8v2.7c0 .9 0 1.5.3 2.2h-2.8zm-3-15.2v5.5h1.1c1 0 1.7-.5 1.7-1.9v-1.8c0-1.3-.4-1.8-1.4-1.8h-1.4zm14-2.8c2.7 0 4.1 1.6 4.1 4.5v.7h-2.6v-.9c0-1.3-.5-1.8-1.4-1.8s-1.4.5-1.4 1.8c0 3.7 5.5 4.3 5.5 9.4 0 2.8-1.4 4.5-4.2 4.5-2.7 0-4.2-1.6-4.2-4.5v-1.2h2.6v1.4c0 1.3.6 1.7 1.4 1.7s1.4-.5 1.4-1.7c0-3.7-5.5-4.3-5.5-9.4.2-2.9 1.6-4.5 4.3-4.5zm17.6 18h-2.8l-.5-3.2h-3.4l-.5 3.2h-2.6l2.8-17.8h4.1l2.9 17.8zm-6.4-5.6h2.7l-1.3-9-1.4 9zm8.7-12.2h8.6v2.5h-2.9v15.3h-2.8v-15.3h-2.9V405zm12.7 0h2.8v17.8h-2.8V405zm7.4 4.3c0-2.8 1.5-4.5 4.2-4.5s4.2 1.6 4.2 4.5v9.3c0 2.8-1.5 4.5-4.2 4.5s-4.2-1.6-4.2-4.5v-9.3zm2.8 9.4c0 1.3.6 1.8 1.4 1.8s1.4-.5 1.4-1.8v-9.6c0-1.3-.6-1.8-1.4-1.8s-1.4.5-1.4 1.8v9.6zm12.8-8.8v12.9h-2.5V405h3.5l2.9 10.7V405h2.5v17.8h-2.9l-3.5-12.9z"/>
</svg>
