<svg xmlns="http://www.w3.org/2000/svg" viewBox="120 190 345 235">
  <style>
    .st0{fill:#FFFFFF;}
  </style>
  <path d="M130.4 213.9v167l8.4-11.4 103.4 5.6V210.2l-103.5-11.5-8.3 15.2zm35.6 7.6h22.9v105.9h32v21.2H166V221.5zm142.7 88.2V299c0-11.2-3.6-13.3-10.8-13.3H291v34.5h9.4c5.1-.1 8.3-1.8 8.3-10.5zm-2-56.5v-6.9c0-9.1-3.3-11-8.1-11H291v29.2h5.9c5.1 0 9.8-1.3 9.8-11.3z" class="st0"/>
  <path d="M349.8 363.2V192.4l-103.4 3.9-19.3 9.5 19.3 2v145.4l103.4 10zm-81.7-149h31.1c20.8 0 30.5 9.6 30.5 30.2v4.4c0 11.9-3.4 20.1-10.5 24.7 8.3 4.6 12.4 13.4 12.4 26.6v10.1c0 20-11.1 31-31.2 31h-32.3v-127z" class="st0"/>
  <path d="M353.9 213.1v154.1l-11.3-1.4 11.3 11.5 92.9-9 10.6-159.7-103.5 4.5zm79.2 60.5h-21.9v-15c0-9.2-4.4-10.4-8.3-10.4s-8.3 1.2-8.3 10.4v66.7c0 5.1 1 10.3 8.3 10.3 7.3 0 8.3-5.2 8.3-10.3v-19.4h21.9v18.2c0 21.2-10.9 32.8-30.7 32.8s-30.7-11.7-30.7-32.8v-64.3c0-21.2 10.9-32.8 30.7-32.8s30.7 11.7 30.7 32.8v13.8zM121.2 405h2.8v15.3h4.6v2.5h-7.4V405zm14.3 7.5h3.8v2.5h-3.8v5.2h4.8v2.5h-7.6V405h7.6v2.5h-4.8v5zm18.4 10.3h-2.8l-.5-3.2h-3.4l-.5 3.2h-2.6L147 405h4.1l2.8 17.8zm-6.4-5.6h2.7l-1.3-9-1.4 9zM158 405h4.4c2.8 0 4.2 1.6 4.2 4.4v9c0 2.8-1.4 4.4-4.2 4.4H158V405zm2.8 2.6v12.7h1.6c.9 0 1.4-.5 1.4-1.7v-9.3c0-1.3-.5-1.7-1.4-1.7h-1.6zm10.4-2.6h2.8v17.8h-2.8V405zm10.1 4.9v12.9h-2.5V405h3.5l2.9 10.7V405h2.5v17.8h-2.9l-3.5-12.9zm15.3 3h3.9v5.6c0 2.8-1.4 4.5-4.2 4.5s-4.2-1.6-4.2-4.5v-9.3c0-2.8 1.4-4.5 4.2-4.5s4.2 1.6 4.2 4.5v1.7h-2.6V409c0-1.3-.6-1.8-1.4-1.8-.9 0-1.4.5-1.4 1.8v9.6c0 1.3.6 1.7 1.4 1.7.9 0 1.4-.5 1.4-1.7v-3.3h-1.3v-2.4zm23.7-3.8v.6c0 1.8-.6 3-1.8 3.6 1.5.6 2.1 1.9 2.1 3.8v1.4c0 2.7-1.4 4.2-4.2 4.2H212V405h4.2c2.8 0 4.1 1.4 4.1 4.1zm-5.6-1.5v4.7h1.1c1 0 1.7-.5 1.7-1.9v-1c0-1.3-.4-1.8-1.4-1.8h-1.4zm0 7.2v5.5h1.6c.9 0 1.4-.4 1.4-1.8V417c0-1.7-.5-2.2-1.8-2.2h-1.2zm16.2 8c-.2-.5-.3-.7-.3-2.2v-2.8c0-1.7-.6-2.3-1.8-2.3h-1v7.2H225V405h4.2c2.9 0 4.1 1.3 4.1 4.1v1.4c0 1.8-.6 3-1.8 3.6 1.4.6 1.9 1.9 1.9 3.8v2.7c0 .9 0 1.5.3 2.2h-2.8zm-3.1-15.2v5.5h1.1c1 0 1.7-.5 1.7-1.9v-1.8c0-1.3-.4-1.8-1.4-1.8h-1.4zM238 405h2.8v17.8H238V405zm6.9 0h8.6v2.5h-2.9v15.3h-2.8v-15.3h-2.9V405zm20.8 17.8h-2.8l-.5-3.2H259l-.5 3.2h-2.6l2.8-17.8h4.1l2.9 17.8zm-6.4-5.6h2.7l-1.3-9-1.4 9zm10.5-12.2h2.8v17.8h-2.8V405zm10.1 4.9v12.9h-2.5V405h3.5l2.9 10.7V405h2.5v17.8h-2.9l-3.5-12.9zm11.2-2.2V405h2.7v2.4l-1.2 2.8h-1.1l.7-2.5h-1.1zm11.1-2.9c2.7 0 4.1 1.6 4.1 4.5v.7h-2.6v-.9c0-1.3-.5-1.8-1.4-1.8-.9 0-1.4.5-1.4 1.8 0 3.7 5.5 4.3 5.5 9.4 0 2.8-1.4 4.5-4.2 4.5-2.7 0-4.2-1.6-4.2-4.5v-1.2h2.6v1.4c0 1.3.6 1.7 1.4 1.7s1.4-.5 1.4-1.7c0-3.7-5.5-4.3-5.5-9.4.2-2.9 1.6-4.5 4.3-4.5zm23.4 11.4v2.4c0 2.8-1.4 4.5-4.2 4.5s-4.2-1.6-4.2-4.5v-9.3c0-2.8 1.4-4.5 4.2-4.5s4.2 1.6 4.2 4.5v1.7H323v-1.9c0-1.3-.6-1.8-1.4-1.8s-1.4.5-1.4 1.8v9.6c0 1.3.6 1.7 1.4 1.7s1.4-.5 1.4-1.7v-2.5h2.6zm4.3-6.9c0-2.8 1.5-4.5 4.2-4.5s4.2 1.6 4.2 4.5v9.3c0 2.8-1.5 4.5-4.2 4.5s-4.2-1.6-4.2-4.5v-9.3zm2.8 9.4c0 1.3.6 1.8 1.4 1.8s1.4-.5 1.4-1.8v-9.6c0-1.3-.6-1.8-1.4-1.8s-1.4.5-1.4 1.8v9.6zm12.8-8.8v12.9H343V405h3.5l2.9 10.7V405h2.5v17.8H349l-3.5-12.9zm15.4 9.6L363 405h2.6l-2.7 17.8h-4.2L356 405h2.8l2.1 14.5zm11.5-7h3.8v2.5h-3.8v5.2h4.8v2.5h-7.6V405h7.6v2.5h-4.8v5zm15.2 10.3c-.2-.5-.3-.7-.3-2.2v-2.8c0-1.7-.6-2.3-1.8-2.3h-1v7.2h-2.8V405h4.2c2.9 0 4.1 1.3 4.1 4.1v1.4c0 1.8-.6 3-1.8 3.6 1.4.6 1.9 1.9 1.9 3.8v2.7c0 .9 0 1.5.3 2.2h-2.8zm-3-15.2v5.5h1.1c1 0 1.7-.5 1.7-1.9v-1.8c0-1.3-.4-1.8-1.4-1.8h-1.4zm14-2.8c2.7 0 4.1 1.6 4.1 4.5v.7h-2.6v-.9c0-1.3-.5-1.8-1.4-1.8s-1.4.5-1.4 1.8c0 3.7 5.5 4.3 5.5 9.4 0 2.8-1.4 4.5-4.2 4.5-2.7 0-4.2-1.6-4.2-4.5v-1.2h2.6v1.4c0 1.3.6 1.7 1.4 1.7s1.4-.5 1.4-1.7c0-3.7-5.5-4.3-5.5-9.4.2-2.9 1.6-4.5 4.3-4.5zm17.6 18h-2.8l-.5-3.2h-3.4l-.5 3.2h-2.6l2.8-17.8h4.1l2.9 17.8zm-6.4-5.6h2.7l-1.3-9-1.4 9zm8.7-12.2h8.6v2.5h-2.9v15.3h-2.8v-15.3h-2.9V405zm12.7 0h2.8v17.8h-2.8V405zm7.4 4.3c0-2.8 1.5-4.5 4.2-4.5s4.2 1.6 4.2 4.5v9.3c0 2.8-1.5 4.5-4.2 4.5s-4.2-1.6-4.2-4.5v-9.3zm2.8 9.4c0 1.3.6 1.8 1.4 1.8s1.4-.5 1.4-1.8v-9.6c0-1.3-.6-1.8-1.4-1.8s-1.4.5-1.4 1.8v9.6zm12.8-8.8v12.9h-2.5V405h3.5l2.9 10.7V405h2.5v17.8h-2.9l-3.5-12.9z" class="st0"/>
</svg>