<svg xmlns="http://www.w3.org/2000/svg" id="Layer_1" viewBox="0 0 329.7 141.3">
  <style>
    .st0{fill:#FFFFFF;}
  </style>
  <path d="M194.9 67.1c-6.7 0-11.3-5.5-11.3-11.9v-.1c0-6.4 4.5-11.8 11.2-11.8s11.3 5.5 11.3 11.9v.1c0 6.4-4.5 11.8-11.2 11.8m-.1 11.1c13.6 0 23.8-10.3 23.8-22.9v-.1c0-12.7-10.1-22.8-23.7-22.8s-23.8 10.3-23.8 22.9v.1c0 12.6 10.1 22.8 23.7 22.8m-42.6-.9h12.2V33.2h-12.2v44.1zM120.8 44c7.4 0 12.2 4.2 12.2 11.2v.1c0 7.1-4.9 11.2-12.2 11.2h-5V44h5zm-17.2 33.3h16.8c15.8 0 25.1-9.5 25.1-22.2V55c0-12.7-9.1-21.8-24.8-21.8h-17.1v44.1zm-34-17.5l5-12.5 4.9 12.5h-9.9zM50 77.3h12.8l3.2-7.9h17.1l3.2 7.9h13.1L80.5 32.9H68.8L50 77.3zM21.2 54.4V43.7h8.1c4 0 6.6 1.8 6.6 5.3v.1c0 3.2-2.5 5.2-6.6 5.2h-8.1v.1zM9 77.3h12.2V63.9h5.4l8.9 13.4h14.1L39.1 61.9c5.5-2.3 9.1-6.8 9.1-13.6v-.1c0-4.3-1.3-7.7-3.9-10.3-3-3-7.6-4.7-14.4-4.7H9v44.1zm297.2 31.8h5.2v32.1h-5.2zm9.2 15.2h5.2v17h-5.2zM278.8 69h5.2v55.3h-5.2zm9.1 13.1h5.2v59.2h-5.2zm9.2 14.9h5.2v44.2h-5.2zm-73.2-28h5.2v47h-5.2zm9.1-10.9h5.2V116H233zM205.6 97h5.2v18.9h-5.2zm9.1-14.9h5.2v33.8h-5.2zm109.8 54.4h5.2v4.8h-5.2zm-128.1-25.4h5.2v4.8h-5.2zm45.8-96.9h5.2V97h-5.2zm18.3 0h5.2V97h-5.2zm-9.2 9.9h5.2v63h-5.2zM278.8 0h5.2v40.9h-5.2zm9.1 0h5.2v27.5h-5.2zm9.2 0h5.2v14.3h-5.2zm-73.2 0h5.2v41.1h-5.2zm9.1 0h5.2v52.9H233zm-27.4 0h5.2v14.3h-5.2zm9.1 0h5.2v27.5h-5.2zm-18.3 0h5.2v4.8h-5.2zm109.8 0h5.2v4.8h-5.2zm-36.6 0h5.2v52.9h-5.2zm0 58.1h5.2V116h-5.2zm-74.8 42c2.7 0 4.3-1.2 5.5-2.8l-2.6-1.8c-.7.9-1.5 1.5-2.8 1.5-1.7 0-3-1.5-3-3.3 0-1.8 1.2-3.3 3-3.3 1.2 0 2 .6 2.7 1.5l2.6-2c-1.1-1.5-2.7-2.6-5.3-2.6-3.8 0-6.5 2.8-6.5 6.5 0 3.6 2.9 6.3 6.4 6.3m-11.7-.3h3.4V87.4h-3.4v12.4zm-6.7.3c3 0 5-1.5 5-4 0-2.3-1.8-3.2-4.6-3.9-1.7-.4-2.2-.6-2.2-1.2 0-.5.4-.8 1.2-.8 1.1 0 2.3.4 3.5 1.2L181 89c-1.3-1.1-3-1.7-5.1-1.7-3 0-4.8 1.7-4.8 4 0 2.5 2 3.3 4.7 3.9 1.7.4 2.1.7 2.1 1.2s-.5.9-1.4.9c-1.4 0-2.8-.5-4-1.5l-1.9 2.3c1.5 1.3 3.6 2 5.8 2m-12.8 0c3.5 0 5.8-1.8 5.8-5.8v-6.9H166v7c0 1.7-.9 2.6-2.3 2.6s-2.3-.9-2.3-2.6v-6.9h-3.5v7c0 3.8 2.2 5.6 5.7 5.6m-21-.3h3.4v-7.1l3.2 4.8h.1l3.2-4.9v7.1h3.4V87.4h-3.6l-3 4.8-3-4.8h-3.6l-.1 12.4zm-16.5 0h10.1v-2.9h-6.7v-2h6v-2.7h-6v-1.9h6.6v-2.9h-10v12.4zm-13.5 0h3.4v-4.7h4.4v4.7h3.4V87.4h-3.4V92H116v-4.6h-3.4v12.4zm-8.7 0h3.4v-9.4h3.7v-3h-10.9v3h3.7v9.4h.1zM88.7 97c-1.9 0-3.2-1.6-3.2-3.4 0-1.8 1.3-3.3 3.2-3.3 1.9 0 3.2 1.5 3.2 3.4 0 1.8-1.3 3.3-3.2 3.3m0 3.1c3.8 0 6.7-2.9 6.7-6.5s-2.8-6.4-6.7-6.4c-3.8 0-6.7 2.9-6.7 6.5 0 3.5 2.8 6.4 6.7 6.4m-14.4-.3h3.4v-9.4h3.7v-3H70.6v3h3.7v9.4zm-17 0h3.4V93l5.3 6.8h3V87.4h-3.4V94l-5.1-6.6h-3.2v12.4zm-5.7 0H55V87.4h-3.4v12.4zm-13.7 0h3.4v-9.4H45v-3H34.2v3h3.7v9.4zm-14.9 0h10.1v-2.9h-6.7v-2h6v-2.7h-6v-1.9H33v-2.9H23v12.4zm-7.3.3c2.3 0 4.1-.8 5.4-1.9v-5.6h-5.7v2.5h2.4v1.5c-.5.3-1.1.5-2 .5-2 0-3.4-1.4-3.4-3.5 0-1.9 1.4-3.4 3.2-3.4 1.2 0 2.1.4 3 1.2l2-2.4c-1.3-1.1-2.9-1.8-5-1.8-3.8 0-6.6 2.8-6.6 6.4 0 3.8 2.9 6.5 6.7 6.5" class="st0"/>
</svg>
