<svg xmlns="http://www.w3.org/2000/svg" viewBox="0 0 320.7 141.3"><defs><style>.cls-1{fill:#47ad4c;}.cls-2{fill:#39a935;}.cls-3{fill:#9c9b9b;}</style></defs><title>RadioX</title><path class="cls-1" d="M194.9,67.1c-6.7,0-11.3-5.5-11.3-11.9v-.1c0-6.4,4.5-11.8,11.2-11.8s11.3,5.5,11.3,11.9v.1c0,6.4-4.5,11.8-11.2,11.8m-.1,11.1c13.6,0,23.8-10.3,23.8-22.9v-.1c0-12.7-10.1-22.8-23.7-22.8s-23.8,10.3-23.8,22.9v.1c0,12.6,10.1,22.8,23.7,22.8m-42.6-.9h12.2V33.2H152.2ZM120.8,44c7.4,0,12.2,4.2,12.2,11.2v.1c0,7.1-4.9,11.2-12.2,11.2h-5V44ZM103.6,77.3h16.8c15.8,0,25.1-9.5,25.1-22.2V55c0-12.7-9.1-21.8-24.8-21.8H103.6Zm-34-17.5,5-12.5,4.9,12.5ZM50,77.3H62.8L66,69.4H83.1l3.2,7.9H99.4L80.5,32.9H68.8ZM21.2,54.4V43.7h8.1c4,0,6.6,1.8,6.6,5.3v.1c0,3.2-2.5,5.2-6.6,5.2H21.2ZM9,77.3H21.2V63.9h5.4l8.9,13.4H49.6L39.1,61.9c5.5-2.3,9.1-6.8,9.1-13.6v-.1a13.87,13.87,0,0,0-3.9-10.3c-3-3-7.6-4.7-14.4-4.7H9Z" transform="translate(-9)"/><rect class="cls-2" x="297.2" y="109.1" width="5.2" height="32.1"/><rect class="cls-2" x="306.4" y="124.3" width="5.2" height="17"/><rect class="cls-2" x="269.8" y="69" width="5.2" height="55.3"/><rect class="cls-2" x="278.9" y="82.1" width="5.2" height="59.2"/><rect class="cls-2" x="288.1" y="97" width="5.2" height="44.2"/><rect class="cls-2" x="214.9" y="69" width="5.2" height="47"/><rect class="cls-2" x="224" y="58.1" width="5.2" height="57.9"/><rect class="cls-2" x="196.6" y="97" width="5.2" height="18.9"/><rect class="cls-2" x="205.7" y="82.1" width="5.2" height="33.8"/><rect class="cls-2" x="315.5" y="136.5" width="5.2" height="4.8"/><rect class="cls-2" x="187.4" y="111.1" width="5.2" height="4.8"/><rect class="cls-2" x="233.2" y="14.2" width="5.2" height="82.8"/><rect class="cls-2" x="251.5" y="14.2" width="5.2" height="82.8"/><rect class="cls-2" x="242.3" y="24.1" width="5.2" height="63"/><rect class="cls-2" x="269.8" width="5.2" height="40.9"/><rect class="cls-2" x="278.9" width="5.2" height="27.5"/><rect class="cls-2" x="288.1" width="5.2" height="14.3"/><rect class="cls-2" x="214.9" width="5.2" height="41.1"/><rect class="cls-2" x="224" width="5.2" height="52.9"/><rect class="cls-2" x="196.6" width="5.2" height="14.3"/><rect class="cls-2" x="205.7" width="5.2" height="27.5"/><rect class="cls-2" x="187.4" width="5.2" height="4.8"/><rect class="cls-2" x="297.2" width="5.2" height="4.8"/><rect class="cls-2" x="260.6" width="5.2" height="52.9"/><rect class="cls-2" x="260.6" y="58.1" width="5.2" height="57.9"/><path class="cls-3" d="M194.8,100.1a6.39,6.39,0,0,0,5.5-2.8l-2.6-1.8a3.32,3.32,0,0,1-2.8,1.5,3.15,3.15,0,0,1-3-3.3h0a3.08,3.08,0,0,1,3-3.3,3.28,3.28,0,0,1,2.7,1.5l2.6-2a6.12,6.12,0,0,0-5.3-2.6,6.31,6.31,0,0,0-6.5,6.5h0a6.3,6.3,0,0,0,6.4,6.3m-11.7-.3h3.4V87.4h-3.4Zm-6.7.3c3,0,5-1.5,5-4h0c0-2.3-1.8-3.2-4.6-3.9-1.7-.4-2.2-.6-2.2-1.2h0c0-.5.4-.8,1.2-.8a6.4,6.4,0,0,1,3.5,1.2L181,89a7.65,7.65,0,0,0-5.1-1.7c-3,0-4.8,1.7-4.8,4h0c0,2.5,2,3.3,4.7,3.9,1.7.4,2.1.7,2.1,1.2h0c0,.5-.5.9-1.4.9a6.23,6.23,0,0,1-4-1.5l-1.9,2.3a8.88,8.88,0,0,0,5.8,2m-12.8,0c3.5,0,5.8-1.8,5.8-5.8V87.4H166v7c0,1.7-.9,2.6-2.3,2.6s-2.3-.9-2.3-2.6V87.5h-3.5v7c0,3.8,2.2,5.6,5.7,5.6m-21-.3H146V92.7l3.2,4.8h.1l3.2-4.9v7.1h3.4V87.4h-3.6l-3,4.8-3-4.8h-3.6V99.8Zm-16.5,0h10.1V96.9h-6.7v-2h6V92.2h-6V90.3h6.6V87.4h-10Zm-13.5,0H116V95.1h4.4v4.7h3.4V87.4h-3.4V92H116V87.4h-3.4Zm-8.7,0h3.4V90.4H111v-3H100.1v3h3.7v9.4Z" transform="translate(-9)"/><path class="cls-3" d="M88.7,97a3.27,3.27,0,0,1-3.2-3.4h0a3.2,3.2,0,1,1,6.4.1h0A3.18,3.18,0,0,1,88.7,97m0,3.1a6.53,6.53,0,0,0,6.7-6.5h0a6.39,6.39,0,0,0-6.7-6.4A6.53,6.53,0,0,0,82,93.7h0a6.45,6.45,0,0,0,6.7,6.4m-14.4-.3h3.4V90.4h3.7v-3H70.6v3h3.7Zm-17,0h3.4V93L66,99.8h3V87.4H65.6V94l-5.1-6.6H57.3Zm-5.7,0H55V87.4H51.6Zm-13.7,0h3.4V90.4H45v-3H34.2v3h3.7ZM23,99.8H33.1V96.9H26.4v-2h6V92.2h-6V90.3H33V87.4H23Zm-7.3.3a8.19,8.19,0,0,0,5.4-1.9V92.6H15.4v2.5h2.4v1.5a3.68,3.68,0,0,1-2,.5,3.28,3.28,0,0,1-3.4-3.5h0a3.27,3.27,0,0,1,3.2-3.4,4.23,4.23,0,0,1,3,1.2l2-2.4a7.43,7.43,0,0,0-5-1.8A6.37,6.37,0,0,0,9,93.6H9a6.41,6.41,0,0,0,6.7,6.5" transform="translate(-9)"/></svg>